<svg width="160" height="42" viewBox="0 0 160 42" fill="none" xmlns="http://www.w3.org/2000/svg">
<g clip-path="url(#clip0_866_5160)">
<mask id="mask0_866_5160" style="mask-type:luminance" maskUnits="userSpaceOnUse" x="0" y="11" width="160" height="21">
<path d="M0 11H159.65V31.741H0V11Z" fill="white"/>
</mask>
<g mask="url(#mask0_866_5160)">
<path fill-rule="evenodd" clip-rule="evenodd" d="M11.8567 31.2703H17.3574V16.5467H11.8567V31.2703ZM11.8567 14.9576H17.3574V11.0136H11.8567V14.9576ZM2.25046 31.2703H7.75111V20.6393H10.5286V16.5457H7.63922C7.55556 15.1857 7.93935 14.9869 9.27268 14.9869H10.6667V11.0126C9.8332 10.9843 9.02797 11.0126 8.19451 11.0126C5.97229 11.0126 4.58353 11.1831 3.38719 12.4039C2.33307 13.4815 2.19399 15.0988 2.25046 16.5457H0V20.6393H2.25046V31.2703ZM18.7911 31.2703H24.2918V23.4974C24.2918 21.1414 25.5414 20.6602 26.4858 20.6602C28.0973 20.6602 28.2918 21.8518 28.2918 23.5538V31.2703H33.7924V21.1707C33.7924 17.7948 31.4311 16.1774 28.8481 16.1774C26.652 16.1774 25.1796 16.9432 24.1527 18.4183H24.0973V16.5457H18.7911V31.2703ZM44.182 26.0217C44.0983 27.5533 43.1258 28.3191 41.8771 28.3191C40.8763 28.3191 40.1537 27.6391 40.1537 26.958C40.1537 25.9642 40.7937 25.6535 42.0152 25.3689C42.766 25.1994 43.5158 25.0007 44.182 24.6596V26.0217ZM49.4609 21.9365C49.4609 19.0993 49.5163 16.1774 42.6269 16.1774C39.2094 16.1774 35.3757 16.8574 35.2094 21.0002H40.321C40.3482 20.3756 40.6818 19.4969 42.377 19.4969C43.2659 19.4969 44.182 19.8651 44.182 20.8579C44.182 21.7953 43.4322 22.0212 42.6824 22.1635C39.8756 22.7023 34.5422 22.5318 34.5422 27.185C34.5422 30.2775 36.8481 31.6385 39.6267 31.6385C41.4044 31.6385 43.0986 31.242 44.2656 29.8799H44.321C44.2939 30.2775 44.3765 30.8738 44.5156 31.2713H49.4609V21.9365ZM50.8664 31.2703H56.3671V23.4974C56.3671 21.1414 57.6167 20.6602 58.5611 20.6602C60.1726 20.6602 60.3671 21.8518 60.3671 23.5538V31.2703H65.8677V21.1707C65.8677 17.7948 63.5064 16.1774 60.9224 16.1774C58.7273 16.1774 57.2549 16.9432 56.2269 18.4183H56.1715V16.5457H50.8664V31.2703ZM66.925 31.2703H81.3145V27.185H74.148L80.732 20.8579V16.5457H67.5346V20.6319H73.6742L66.9239 26.9298V31.2713L66.925 31.2703ZM86.6771 22.2482C86.9281 20.6602 87.8724 19.7814 89.5111 19.7814C90.9271 19.7814 91.9278 20.8872 91.9278 22.2482H86.6771ZM97.2058 25.1712C97.2058 19.4404 94.7336 16.1774 89.0112 16.1774C84.4549 16.1774 81.3992 19.6674 81.3992 23.9503C81.3992 28.8589 84.8711 31.6396 89.4829 31.6396C92.7603 31.6396 95.7888 30.1634 96.9014 26.9863H91.7616C91.3171 27.6956 90.3435 28.0356 89.4557 28.0356C87.7333 28.0356 86.789 26.845 86.6499 25.1712H97.2058ZM98.1229 31.2703H103.624V23.4974C103.624 21.1414 104.874 20.6602 105.818 20.6602C107.429 20.6602 107.624 21.8518 107.624 23.5538V31.2703H112.888V21.1707C112.888 17.7948 110.764 16.1774 108.179 16.1774C105.985 16.1774 104.512 16.9432 103.484 18.4183H103.429V16.5457H98.1229V31.2703ZM125.533 16.3772H127.319V18.9518H127.375C128.027 17.1587 129.983 15.942 132.051 15.942C136.159 15.942 137.406 18.1421 137.406 21.7011V31.3079H135.621V21.9909C135.621 19.4153 134.799 17.4757 131.909 17.4757C129.075 17.4757 127.375 19.6758 127.318 22.5987V31.3079H125.533V16.3772ZM150.469 22.8006C150.384 20.0513 148.712 17.4757 145.823 17.4757C142.903 17.4757 141.288 20.0806 141.005 22.8006H150.469ZM141.005 24.3343C141.033 26.9967 142.393 30.2084 145.823 30.2084C148.429 30.2084 149.847 28.6455 150.414 26.3879H152.198C151.433 29.7743 149.506 31.7421 145.823 31.7421C141.175 31.7421 139.22 28.0962 139.22 23.8426C139.22 19.907 141.175 15.942 145.823 15.942C150.525 15.942 152.396 20.1392 152.254 24.3343H141.005ZM156.675 16.3772H159.651V17.9098H156.676V27.9801C156.676 29.1665 156.844 29.8611 158.119 29.9469C158.63 29.9469 159.14 29.9186 159.651 29.8611V31.423C159.111 31.423 158.601 31.4816 158.063 31.4816C155.683 31.4816 154.861 30.6708 154.889 28.1245V17.9098H152.34V16.3772H154.889V11.8903H156.676V16.3762L156.675 16.3772Z" fill="#667085"/>
</g>
<path fill-rule="evenodd" clip-rule="evenodd" d="M119.12 31.4248C121.728 31.4248 123.841 29.2655 123.841 26.603C123.841 23.9395 121.728 21.7803 119.12 21.7803C116.511 21.7803 114.398 23.9395 114.398 26.603C114.398 29.2655 116.511 31.4248 119.12 31.4248Z" fill="#667085"/>
<path fill-rule="evenodd" clip-rule="evenodd" d="M119.12 25.8592C121.138 25.8592 122.898 26.9713 123.834 26.7642C123.835 26.7098 123.841 26.6574 123.841 26.603C123.841 23.9395 121.728 21.7803 119.12 21.7803C116.511 21.7803 114.398 23.9395 114.398 26.603C114.398 26.6574 114.403 26.7098 114.405 26.7642C115.34 26.9723 117.1 25.8592 119.12 25.8592Z" fill="#667085"/>
</g>
<defs>
<clipPath id="clip0_866_5160">
<rect width="160" height="20.9231" fill="white" transform="translate(0 11)"/>
</clipPath>
</defs>
</svg>
