<svg width="160" height="42" viewBox="0 0 160 42" fill="none" xmlns="http://www.w3.org/2000/svg">
<g clip-path="url(#clip0_866_5174)">
<path d="M41.9124 20.3769H38.8382V30.8052H36.2631V20.3769H34.1808V18.0241H36.2631V16.336C36.2448 15.8267 36.3308 15.319 36.5158 14.8441C36.7008 14.3692 36.9809 13.9371 37.3388 13.5743C38.0588 12.8557 38.9885 12.4965 40.1278 12.4965C40.7001 12.4758 41.2679 12.6036 41.7761 12.8676C42.1316 13.0522 42.4534 13.2953 42.7281 13.5869L41.862 15.5434C41.6712 15.3601 41.4542 15.206 41.2183 15.0862C40.9755 14.9518 40.7031 14.8798 40.4256 14.8765C39.8301 14.8765 39.417 15.0163 39.1863 15.2959C38.9475 15.5919 38.8238 15.9644 38.8382 16.3444V18.022H41.9124V20.3769ZM45.9512 15.3442C45.3724 15.3442 44.9425 15.1953 44.6615 14.8975C44.3736 14.5793 44.2229 14.1603 44.2421 13.7316C44.2412 13.3216 44.3904 12.9255 44.6615 12.6181C44.9411 12.2868 45.371 12.1211 45.9512 12.1211C46.5313 12.1211 46.9605 12.27 47.2387 12.5678C47.5263 12.8854 47.677 13.3036 47.6581 13.7316C47.6596 14.1422 47.5103 14.5392 47.2387 14.8472C46.9577 15.1813 46.5285 15.3484 45.9512 15.3484V15.3442ZM47.2639 30.8052H44.7118V17.8039H47.2639V30.8052Z" fill="#667085"/>
<path d="M57.9418 17.5294C59.1161 17.5294 60.0248 17.7692 60.6678 18.2487C61.314 18.7314 61.7876 19.4093 62.0183 20.1821C62.2838 21.0575 62.4132 21.9684 62.4021 22.883V30.8075H59.85V23.0487C59.8582 22.4798 59.7746 21.9134 59.6026 21.3711C59.4568 20.9018 59.1624 20.4926 58.7638 20.2052C58.3675 19.9263 57.8139 19.8089 57.1051 19.8592C56.4924 19.8466 55.8868 19.991 55.3457 20.2786C54.8523 20.5405 54.4342 20.9246 54.1315 21.3942C53.834 21.8512 53.6779 22.3859 53.6828 22.9313V30.8075H51.1287V17.8062H53.6828V19.8634C54.1342 19.2012 54.7264 18.647 55.417 18.2403C56.1743 17.7691 57.0498 17.5225 57.9418 17.5294Z" fill="#667085"/>
<path d="M77.9866 17.8072V30.8085H75.4094V28.8059C74.9276 29.4264 74.3301 29.9476 73.65 30.3409C72.8357 30.8308 71.8992 31.0802 70.9491 31.0601C69.8909 31.069 68.8533 30.7672 67.9651 30.192C67.0482 29.5976 66.3079 28.7675 65.822 27.7888C65.2766 26.6974 65.0039 25.49 65.0272 24.2701C65.003 23.0514 65.2841 21.8461 65.845 20.7639C66.363 19.778 67.144 18.9549 68.1014 18.386C69.0921 17.8064 70.223 17.5105 71.3706 17.5304C72.2069 17.5124 73.0329 17.718 73.7632 18.1259C74.3957 18.4791 74.9545 18.9504 75.4094 19.5141V17.8072H77.9866ZM71.5446 28.7115C72.2809 28.7278 73.0054 28.5257 73.6269 28.1306C74.2249 27.7377 74.7042 27.1888 75.013 26.5432C75.353 25.8366 75.5232 25.0604 75.51 24.2764C75.522 23.5046 75.3517 22.7409 75.013 22.0473C74.7015 21.4075 74.2225 20.864 73.6269 20.4746C73.0082 20.0954 72.2972 19.8937 71.5716 19.8915C70.8459 19.8893 70.1337 20.0866 69.5126 20.462C68.9157 20.845 68.4355 21.3847 68.1244 22.0221C67.7854 22.7245 67.6159 23.4966 67.6296 24.2764C67.6169 25.0601 67.7863 25.8361 68.1244 26.5432C68.4347 27.1884 68.9146 27.7371 69.5126 28.1306C70.1176 28.5211 70.8247 28.7232 71.5446 28.7115Z" fill="#667085"/>
<path d="M88.369 17.5295C89.5405 17.5295 90.4492 17.7692 91.0951 18.2487C91.7402 18.7324 92.2135 19.41 92.4456 20.1821C92.711 21.0575 92.8405 21.9684 92.8293 22.8831V30.8076H90.2773V23.0487C90.2844 22.4799 90.2009 21.9136 90.0298 21.3711C89.884 20.9018 89.5896 20.4927 89.191 20.2052C88.7947 19.9263 88.2411 19.8089 87.5302 19.8592C86.9176 19.8468 86.312 19.9912 85.7708 20.2786C85.2782 20.5417 84.8604 20.9255 84.5567 21.3942C84.2618 21.8515 84.1073 22.3851 84.1121 22.9292V30.8076H81.5559V17.8063H84.1079V19.8634C84.5589 19.2008 85.1511 18.6464 85.8421 18.2403C86.6 17.7687 87.4764 17.5222 88.369 17.5295Z" fill="#667085"/>
<path d="M105.391 28.6042V30.806H95.7445V28.6797L102.245 20.0065H95.7445V17.8047H105.233V19.887L98.7264 28.6042H105.391Z" fill="#667085"/>
<path d="M115.351 20.3772H112.279V30.8055H109.702V20.3772H107.621V18.0244H109.702V16.3363C109.683 15.8268 109.769 15.3189 109.955 14.8439C110.14 14.3689 110.421 13.9369 110.78 13.5746C111.499 12.856 112.428 12.4967 113.566 12.4967C114.139 12.476 114.707 12.6039 115.215 12.8679C115.573 13.052 115.897 13.2959 116.173 13.5892L115.305 15.5457C115.114 15.362 114.897 15.2078 114.661 15.0886C114.419 14.9502 114.145 14.8745 113.866 14.8684C113.272 14.8684 112.859 15.0082 112.627 15.2878C112.39 15.5844 112.267 15.9566 112.281 16.3363V18.0139H115.353L115.351 20.3772ZM118.027 30.8055V12.4736H120.577V30.8055H118.027Z" fill="#667085"/>
<path d="M132.968 25.6306V17.8047H135.52V30.806H132.968V28.7279C132.538 29.3881 131.964 29.9429 131.29 30.351C130.498 30.8383 129.58 31.0839 128.65 31.0576C127.295 31.0576 126.197 30.5949 125.356 29.6694C124.514 28.744 124.095 27.4641 124.097 25.8299V17.8047H126.658V25.1441C126.651 25.7687 126.756 26.3893 126.968 26.9769C127.157 27.5153 127.501 27.9854 127.958 28.3274C128.469 28.6832 129.083 28.8615 129.705 28.8348C130.552 28.8537 131.375 28.5544 132.011 27.996C132.65 27.4271 132.969 26.6386 132.968 25.6306Z" fill="#667085"/>
<path d="M146.596 21.2204C146.135 20.7589 145.603 20.3738 145.021 20.0796C144.523 19.8068 143.968 19.6546 143.4 19.6351C143.053 19.6342 142.707 19.6758 142.37 19.7588C142.05 19.8315 141.755 19.9895 141.517 20.216C141.394 20.3463 141.3 20.5006 141.24 20.6692C141.18 20.8377 141.156 21.0168 141.169 21.1952C141.163 21.4612 141.236 21.7229 141.38 21.947C141.523 22.171 141.73 22.3473 141.974 22.4534C142.6 22.7375 143.252 22.9615 143.92 23.1224C144.595 23.3038 145.257 23.5315 145.902 23.8039C146.525 24.0612 147.074 24.4698 147.499 24.9929C147.919 25.5129 148.129 26.2441 148.129 27.1863C148.148 27.9375 147.907 28.6724 147.447 29.2665C146.985 29.8526 146.379 30.3091 145.688 30.5918C144.976 30.8982 144.209 31.0566 143.433 31.0574C142.481 31.0553 141.538 30.8828 140.647 30.5478C139.716 30.1999 138.904 29.5948 138.304 28.8031L140.041 27.3163C140.46 27.8104 140.971 28.2185 141.546 28.5179C142.201 28.825 142.92 28.973 143.643 28.9499C143.964 28.949 144.282 28.8951 144.585 28.7905C144.892 28.6865 145.169 28.5078 145.39 28.2705C145.623 27.9993 145.743 27.6484 145.723 27.2912C145.733 27.1197 145.706 26.9482 145.644 26.788C145.582 26.6278 145.487 26.4827 145.365 26.3622C145.088 26.1167 144.763 25.931 144.411 25.817C143.98 25.6665 143.542 25.5384 143.098 25.4332C142.384 25.2337 141.684 24.9893 141.001 24.7014C140.344 24.4304 139.76 24.0071 139.298 23.4663C138.84 22.9267 138.61 22.1948 138.61 21.2707C138.593 20.5479 138.827 19.8414 139.273 19.2723C139.73 18.7062 140.322 18.2636 140.995 17.9848C141.715 17.6766 142.491 17.5203 143.274 17.5255C144.14 17.5425 144.995 17.7106 145.803 18.0225C146.686 18.3342 147.466 18.8826 148.057 19.6078L146.596 21.2204Z" fill="#667085"/>
<path d="M158.463 21.2222C158.003 20.7601 157.472 20.375 156.89 20.0815C156.391 19.8088 155.835 19.6566 155.267 19.6369C154.921 19.6361 154.575 19.6777 154.239 19.7606C153.918 19.8328 153.622 19.9908 153.384 20.2178C153.262 20.3485 153.168 20.5029 153.109 20.6714C153.049 20.8399 153.025 21.0188 153.038 21.1971C153.031 21.4631 153.105 21.7251 153.248 21.9492C153.391 22.1734 153.599 22.3496 153.843 22.4552C154.468 22.7391 155.119 22.963 155.787 23.1242C156.463 23.3059 157.126 23.5336 157.771 23.8057C158.395 24.0644 158.945 24.4753 159.371 25.001C159.79 25.521 160 26.2522 160 27.1944C160.019 27.9456 159.778 28.6805 159.318 29.2746C158.855 29.8602 158.249 30.3166 157.559 30.5999C156.842 30.9056 156.071 31.0619 155.292 31.0592C154.34 31.0571 153.396 30.8846 152.505 30.5496C151.574 30.2024 150.762 29.5972 150.163 28.8049L151.897 27.3182C152.323 27.8135 152.84 28.2216 153.421 28.5197C154.077 28.8272 154.795 28.9753 155.518 28.9517C155.839 28.9511 156.157 28.8973 156.46 28.7923C156.768 28.6894 157.045 28.5105 157.265 28.2723C157.5 28.0019 157.62 27.6506 157.601 27.293C157.611 27.1214 157.583 26.9496 157.521 26.7894C157.459 26.6291 157.363 26.4841 157.24 26.364C156.964 26.1185 156.64 25.9328 156.288 25.8188C155.855 25.6679 155.414 25.5398 154.967 25.4351C154.253 25.2353 153.553 24.9909 152.87 24.7032C152.212 24.4328 151.628 24.0094 151.167 23.4681C150.713 22.9313 150.486 22.2008 150.486 21.2767C150.465 20.5532 150.697 19.8452 151.142 19.2741C151.601 18.707 152.195 18.2649 152.87 17.9887C153.59 17.6805 154.366 17.5242 155.149 17.5294C156.011 17.5476 156.862 17.7158 157.666 18.0264C158.549 18.3375 159.329 18.886 159.92 19.6117L158.463 21.2222Z" fill="#667085"/>
<path d="M22.1378 18.2772C21.2382 17.3063 20.9111 15.2051 20.9111 15.2051L20.649 13.9931C20.649 13.9931 20.3344 12.8565 20.1017 12.5252C19.9952 12.2363 19.9716 11.9234 20.0335 11.6218C20.0954 11.3202 20.2403 11.0419 20.4519 10.8182C20.4519 10.8182 21.081 10.0046 20.1646 9.35034C20.1646 9.35034 19.1601 8.51155 18.4346 9.47407C18.4346 9.47407 17.7572 10.7134 16.7863 10.5226C16.5221 10.4513 16.3669 10.4219 16.3669 10.4219C16.3669 10.4219 14.1819 10.0025 12.7727 10.0025C11.3635 10.0025 9.17847 10.4219 9.17847 10.4219C9.17847 10.4219 9.01281 10.4513 8.75907 10.5226C7.78607 10.7092 7.10875 9.47407 7.10875 9.47407C6.38529 8.50945 5.37873 9.35034 5.37873 9.35034C4.45606 10.0109 5.09354 10.8182 5.09354 10.8182C5.30514 11.0419 5.45005 11.3202 5.51192 11.6218C5.5738 11.9234 5.55018 12.2363 5.44374 12.5252C5.20888 12.8628 4.89433 13.9931 4.89433 13.9931L4.61333 15.2051C4.61333 15.2051 4.28411 17.3021 3.3845 18.2772C3.3845 18.2772 -2.67998 23.7294 1.42801 29.3053C1.42801 29.3053 4.12474 32.5116 8.57664 30.0308C8.57664 30.0308 10.6506 28.8817 12.7706 28.8754C14.8907 28.8691 16.9646 30.0308 16.9646 30.0308C21.4165 32.5116 24.1132 29.3053 24.1132 29.3053C28.2044 23.7273 22.1378 18.2772 22.1378 18.2772ZM8.75488 22.8906C8.33548 23.4589 7.28699 23.398 6.41674 22.7522C5.54649 22.1063 5.18581 21.1228 5.6094 20.5524C6.03299 19.9821 7.07729 20.045 7.94754 20.6908C8.81779 21.3367 9.17847 22.3265 8.75488 22.8969V22.8906ZM9.46786 16.7884C8.69826 16.7884 8.07755 16.0733 8.07546 15.5406H9.2267C9.35881 15.5406 9.39865 15.3142 9.31687 15.2114L8.59761 14.2531C8.8414 14.0419 9.14976 13.9199 9.47205 13.9071C9.84544 13.9213 10.1988 14.0797 10.4579 14.3489C10.7171 14.6181 10.8618 14.9772 10.8618 15.3509C10.8618 15.7245 10.7171 16.0837 10.4579 16.3529C10.1988 16.6221 9.84544 16.7804 9.47205 16.7946L9.46786 16.7884ZM14.6642 15.5406H15.8154C15.9496 15.5406 15.9895 15.3142 15.9056 15.2114L15.1821 14.2468C15.4259 14.0356 15.7343 13.9136 16.0566 13.9008C16.2382 13.8983 16.4185 13.9319 16.587 13.9995C16.7556 14.0671 16.9091 14.1675 17.0385 14.2949C17.168 14.4222 17.271 14.574 17.3414 14.7414C17.4119 14.9088 17.4484 15.0885 17.449 15.2701C17.449 16.0418 16.8199 16.7988 16.0566 16.7988C15.2933 16.7988 14.6663 16.0796 14.6642 15.5469V15.5406ZM19.1098 22.6033C18.2437 23.2576 17.1952 23.3163 16.7759 22.748C16.3565 22.1797 16.715 21.192 17.5832 20.5482C18.4513 19.9045 19.5019 19.8416 19.9213 20.4098C20.3407 20.9781 19.98 21.9658 19.1098 22.6096V22.6033Z" fill="#667085"/>
<path d="M12.7682 30.3857C9.98345 30.3857 8.74832 31.9249 8.74832 31.9249C8.74832 31.9249 7.49013 33.2796 12.7682 33.2796C18.0464 33.2796 16.7861 31.9249 16.7861 31.9249C16.7861 31.9249 15.5509 30.3857 12.7682 30.3857Z" fill="#667085"/>
</g>
<defs>
<clipPath id="clip0_866_5174">
<rect width="160" height="24.2789" fill="white" transform="translate(0 9)"/>
</clipPath>
</defs>
</svg>
