<svg width="160" height="49" viewBox="0 0 160 49" fill="none" xmlns="http://www.w3.org/2000/svg">
<path d="M51.0036 37.0866H55.479V38.1029H49.7555V25.6396H51.0036V37.0866Z" fill="#667085"/>
<path d="M62.8604 38.2268C61.7014 38.2268 60.6673 37.9594 59.7223 37.4066C58.7773 36.8717 58.0463 36.1229 57.5113 35.1422C56.9586 34.1794 56.6912 33.0917 56.6912 31.8614C56.6912 30.6312 56.9586 29.5435 57.5113 28.5629C58.0463 27.6 58.7773 26.8512 59.7223 26.2984C60.6673 25.7635 61.7014 25.4961 62.8604 25.4961C64.0193 25.4961 65.0713 25.7635 66.0163 26.2984C66.9613 26.8512 67.6924 27.6 68.2273 28.5629C68.7622 29.5435 69.0296 30.6312 69.0296 31.8614C69.0296 33.0917 68.7622 34.1794 68.2273 35.1422C67.6924 36.1229 66.9613 36.8717 66.0163 37.4066C65.0713 37.9594 64.0193 38.2268 62.8604 38.2268ZM62.8604 37.1392C63.7876 37.1392 64.6256 36.9252 65.3566 36.4973C66.0876 36.0694 66.676 35.4453 67.104 34.6429C67.5319 33.8406 67.7458 32.9134 67.7458 31.8614C67.7458 30.8095 67.5319 29.8823 67.104 29.08C66.676 28.2776 66.0876 27.6714 65.3566 27.2434C64.6256 26.8155 63.7876 26.6016 62.8604 26.6016C61.9332 26.6016 61.0952 26.8155 60.3642 27.2434C59.6331 27.6714 59.0447 28.2776 58.6168 29.08C58.1889 29.8823 57.9749 30.8095 57.9749 31.8614C57.9749 32.9134 58.1889 33.8406 58.6168 34.6429C59.0447 35.4453 59.6331 36.0694 60.3642 36.4973C61.0952 36.9252 61.9332 37.1392 62.8604 37.1392Z" fill="#667085"/>
<path d="M70.7416 31.8614C70.7416 30.6312 71.009 29.5435 71.5439 28.5629C72.0788 27.6 72.8099 26.8512 73.737 26.2984C74.6642 25.7635 75.6984 25.4961 76.8395 25.4961C78.2302 25.4961 79.4249 25.817 80.4233 26.4768C81.404 27.1543 82.135 28.0815 82.5808 29.2761H81.1187C80.7621 28.4381 80.2272 27.7784 79.4962 27.2969C78.7651 26.8155 77.8736 26.5837 76.8395 26.5837C75.9301 26.5837 75.11 26.7977 74.3789 27.2256C73.6479 27.6535 73.0595 28.2598 72.6494 29.0621C72.2393 29.8645 72.0253 30.8095 72.0253 31.8614C72.0253 32.9134 72.2393 33.8406 72.6494 34.6429C73.0595 35.4453 73.6479 36.0515 74.3789 36.4795C75.11 36.9074 75.9301 37.1213 76.8395 37.1213C77.8736 37.1213 78.7651 36.8895 79.4962 36.4081C80.2272 35.9445 80.7621 35.3027 81.1187 34.4646H82.5808C82.135 35.6593 81.404 36.5686 80.4055 37.2283C79.407 37.888 78.2124 38.209 76.8395 38.209C75.6984 38.209 74.6642 37.9415 73.737 37.3888C72.8099 36.8539 72.0788 36.105 71.5439 35.1422C71.009 34.1794 70.7416 33.0917 70.7416 31.8614Z" fill="#667085"/>
<path d="M91.7095 38.1029L86.3069 32.3438V38.1029H85.0588V25.6396H86.3069V31.4701L91.7095 25.6396H93.2964L87.4659 31.8624L93.3498 38.1029H91.7095Z" fill="#667085"/>
<path d="M102.479 25.6396V26.6738H99.02V38.1029H97.7719V26.6738H94.295V25.6396H102.479Z" fill="#667085"/>
<path d="M111.091 38.1029L108.007 32.8965H105.707V38.1029H104.459V25.6396H108.203C109.594 25.6396 110.646 25.9784 111.377 26.6381C112.09 27.2979 112.447 28.1715 112.447 29.2592C112.447 30.1685 112.197 30.9352 111.68 31.5592C111.163 32.2011 110.396 32.6112 109.38 32.8074L112.589 38.1029H111.091ZM105.707 31.8802H108.221C109.201 31.8802 109.932 31.6484 110.432 31.167C110.913 30.6856 111.163 30.0615 111.163 29.2592C111.163 28.439 110.931 27.7971 110.45 27.3513C109.968 26.9056 109.219 26.6916 108.203 26.6916H105.707V31.8802Z" fill="#667085"/>
<path d="M122.146 35.1408H116.476L115.388 38.1006H114.069L118.616 25.7979H120.024L124.553 38.1006H123.234L122.146 35.1408ZM121.771 34.1067L119.311 27.3669L116.85 34.1067H121.771Z" fill="#667085"/>
<path d="M126.55 25.6396H127.798V38.1029H126.55V25.6396Z" fill="#667085"/>
<path d="M140.03 38.1029H138.782L131.881 27.6188V38.1029H130.633V25.6396H131.881L138.782 36.1059V25.6396H140.03V38.1029Z" fill="#667085"/>
<path d="M144.112 26.6552V31.3089H148.837V32.3431H144.112V37.068H149.372V38.1022H142.864V25.6211H149.372V26.6552H144.112Z" fill="#667085"/>
<path d="M158.466 38.1029L155.381 32.8965H153.081V38.1029H151.833V25.6396H155.577C156.968 25.6396 158.02 25.9784 158.751 26.6381C159.464 27.2979 159.821 28.1715 159.821 29.2592C159.821 30.1685 159.571 30.9352 159.054 31.5592C158.537 32.2011 157.77 32.6112 156.754 32.8074L159.963 38.1029H158.466ZM153.081 31.8802H155.595C156.576 31.8802 157.307 31.6484 157.806 31.167C158.287 30.6856 158.537 30.0615 158.537 29.2592C158.537 28.439 158.305 27.7971 157.824 27.3513C157.342 26.9056 156.594 26.6916 155.577 26.6916H153.081V31.8802Z" fill="#667085"/>
<path d="M46.5237 33.2523C44.2109 41.3078 37.8485 45.6707 30.1019 45.9924C28.6947 46.0507 27.1985 45.7586 25.7715 45.403C21.2006 44.2632 17.8538 41.7279 15.4273 37.6891C13.0114 33.668 12.3618 29.3302 13.4811 24.7778C18.6791 23.4503 23.6316 23.2721 25.8169 23.2584L23.5616 32.3014C23.4545 32.5675 23.1644 32.9723 22.5711 32.8148C21.9778 32.6575 21.0003 32.4226 21.0003 32.4226L19.9274 34.8968L22.7398 35.5978C23.2631 35.729 23.7759 35.8662 24.2806 35.9955L23.3864 39.5867L25.545 40.1254L26.4307 36.5725C27.0206 36.7324 27.5931 36.8802 28.1531 37.0193L27.2703 40.5556L29.4318 41.0943L30.3262 37.5099C34.0116 38.2072 36.7828 37.9259 37.9494 34.5928C38.8892 31.9087 37.9026 30.3605 35.9636 29.351C37.3756 29.0256 38.4395 28.0966 38.7232 26.1779C39.1154 23.5569 37.1196 22.1476 34.3906 21.2077L35.2761 17.6572L33.1148 17.1185L32.2529 20.5756C31.6846 20.4339 31.1011 20.3004 30.5213 20.1679L31.3893 16.6883L29.9396 16.3268C30.9876 14.2864 31.9911 12.6411 32.7034 11.5453C33.6213 11.7836 33.6509 11.7902 34.3075 11.995C38.8058 13.3985 42.3542 16.0502 44.7812 20.0892C47.208 24.1283 47.8237 28.7234 46.5237 33.2523ZM33.7849 33.1022C33.1172 35.7863 28.5983 34.3355 27.1333 33.9715L28.3202 29.2138C29.7849 29.5793 34.483 30.3035 33.7849 33.1022ZM28.863 27.0359L29.9391 22.7208C31.1589 23.0248 35.0882 23.5925 34.4534 26.1388C33.844 28.5804 30.0829 27.34 28.863 27.0359ZM9.21194 22.4922L24.7598 20.5434L31.7554 7.06467L33.2922 9.11376C33.1378 9.32331 32.7686 10.0578 32.1787 10.9625C30.8118 13.0488 28.3138 17.0502 26.4827 22.3175C25.2787 22.3009 18.5775 22.3574 12.4365 23.9536C11.7086 24.1417 11.3083 24.1779 10.6287 24.4033L9.21194 22.4922ZM11.767 5.14727L33.3912 1.47981L23.9351 19.3877L6.09053 21.6981C6.68198 20.4445 8.30774 20.0655 10.8166 18.7353C14.7688 16.6408 16.4094 16.6878 18.1805 12.0222C18.4743 11.9404 18.6786 11.6902 18.6786 11.3592C18.6786 10.9641 18.318 10.5046 17.9377 10.5046C17.5574 10.5046 17.0491 10.9388 17.0491 11.3336C17.0491 11.6165 17.2814 11.8842 17.5102 12.0003C15.554 16.2262 14.3138 16.0304 10.4653 18.0705C7.63315 19.5717 5.71022 20.294 5.23093 21.7899L2.071 22.2151L11.767 5.14727ZM45.7981 19.5675C43.2996 15.4088 39.1059 12.4146 34.4339 11.1087C33.8834 10.9549 33.8807 10.9533 33.1436 10.7216C33.8654 9.62128 34.1668 9.30801 34.1705 9.30326L32.1882 6.3827L35.4693 0.0585938L11.028 4.2671L0 23.6131L5.11613 22.9245L5.20428 24.9367C4.86461 25.0354 4.61784 25.3096 4.61784 25.6361C4.61784 25.9391 4.82872 26.1982 5.12985 26.3133L4.70309 31.6231H6.33281L5.78623 26.3252C6.10584 26.2175 6.33281 25.9507 6.33281 25.6361C6.33281 25.2914 6.17578 24.994 5.80629 24.9113L6.05516 22.8955L8.33967 22.5791L10.2837 25.3605C10.9625 25.1312 11.6957 24.9779 12.3861 24.7976C11.2621 29.4595 12.0005 34.2215 14.4738 38.3379C16.9718 42.4959 20.9393 45.4321 25.6453 46.6055C27.1151 46.9721 28.5878 47.1473 30.0386 47.1473C38.1798 47.1468 45.6701 41.6253 47.7263 33.3785C48.8997 28.6717 48.297 23.7258 45.7981 19.5675Z" fill="#667085"/>
</svg>
