<svg width="160" height="42" viewBox="0 0 160 42" fill="none" xmlns="http://www.w3.org/2000/svg">
<path d="M147.994 9.26483C141.374 9.26483 135.989 14.6497 135.989 21.2704C135.989 27.8911 141.374 33.2759 147.994 33.2759C154.615 33.2759 160 27.8911 160 21.2704C160 14.6497 154.615 9.26483 147.994 9.26483ZM147.994 31.6428C142.257 31.6428 137.622 27.0083 137.622 21.2704C137.622 15.5324 142.257 10.8979 147.994 10.8979C153.732 10.8979 158.367 15.5324 158.367 21.2704C158.367 27.0083 153.732 31.6428 147.994 31.6428Z" fill="#667085"/>
<path d="M0 32.9229V9.61804H10.1959C13.0207 9.61804 15.0952 10.1918 16.4635 11.2953C17.7876 12.3987 18.4938 13.9877 18.4938 15.9739C18.4938 17.2098 18.0966 18.3132 17.3462 19.2843C16.5959 20.2553 15.4924 20.8732 14.0359 21.1381V21.1822C15.669 21.4029 16.9049 22.0208 17.7876 23.036C18.6704 24.007 19.1117 25.1987 19.1117 26.567C19.1117 28.5532 18.4055 30.1422 16.949 31.2457C15.4924 32.3932 13.3738 32.9229 10.5931 32.9229H0ZM4.72276 19.3725H9.57794C12.1379 19.3725 13.4179 18.3574 13.4179 16.3712C13.4179 14.3849 12.1379 13.3698 9.57794 13.3698H4.72276V19.3725ZM4.72276 29.2594H10.1076C11.4317 29.2594 12.4028 28.9946 13.0207 28.465C13.6386 27.9353 13.9917 27.185 13.9917 26.2139C13.9917 25.2429 13.6828 24.4925 13.0207 23.9629C12.4028 23.4332 11.3876 23.1684 10.1076 23.1684H4.72276V29.2594Z" fill="#667085"/>
<path d="M40.5628 9.61804V13.5463H32.7504V32.9229H27.8952V13.5463H20.0828V9.61804H40.5628Z" fill="#667085"/>
<path d="M73.2248 9.61804H89.1586V11.2511H74.9903V20.2553H86.2013V21.9325H74.9903V31.3339H89.7324V32.967H73.2248V9.61804Z" fill="#667085"/>
<path d="M116.789 9.61804V32.9229H115.024V9.61804H116.789ZM132.017 20.2553V21.9325H115.906V20.2553H132.017ZM132.944 9.61804V32.9229H131.178V9.61804H132.944Z" fill="#667085"/>
<path d="M68.193 27.9352L61.3957 21.1379L68.193 14.2966V27.9352Z" fill="#667085"/>
<path d="M58.5709 27.1849C57.0261 28.7738 54.9075 29.7449 52.524 29.7449C47.8454 29.7449 44.0495 25.949 44.0495 21.2704C44.0495 16.5917 47.8454 12.7959 52.524 12.7959C54.8192 12.7959 56.8937 13.7228 58.4385 15.2235L61.1309 12.531C58.924 10.3683 55.8785 9 52.524 9C45.7709 9 40.2536 14.4731 40.2536 21.2704C40.2536 28.0676 45.7268 33.5407 52.524 33.5407C55.9226 33.5407 59.0123 32.1283 61.2633 29.8773L58.5709 27.1849Z" fill="#667085"/>
<path d="M109.506 28.509C107.608 30.4069 105.004 31.5986 102.091 31.5986C96.353 31.5986 91.7185 26.9642 91.7185 21.2262C91.7185 15.4883 96.353 10.8538 102.091 10.8538C104.916 10.8538 107.476 12.0014 109.374 13.811L110.521 12.6635C108.359 10.5448 105.401 9.22069 102.091 9.22069C95.4703 9.22069 90.0854 14.6055 90.0854 21.2262C90.0854 27.8469 95.4703 33.2318 102.091 33.2318C105.445 33.2318 108.447 31.8635 110.654 29.6566L109.506 28.509Z" fill="#667085"/>
</svg>
