<svg width="160" height="48" viewBox="0 0 160 48" fill="none" xmlns="http://www.w3.org/2000/svg">
<g clip-path="url(#clip0_947_17404)">
<path d="M46.6536 31.3026C45.3354 31.3026 44.6763 30.6481 44.6763 29.3392V18.6958C44.6763 17.3869 45.3354 16.7324 46.6536 16.7324H51.6794C53.2441 16.7324 54.4559 17.0735 55.3146 17.7557C56.1733 18.4378 56.6025 19.351 56.6021 20.4952C56.6021 21.2533 56.4132 21.9147 56.0355 22.4793C55.6577 23.0438 55.1325 23.4641 54.46 23.7399C55.2702 23.9879 55.895 24.4045 56.3344 24.9896C56.7738 25.5746 56.9935 26.3013 56.9935 27.1697C56.9935 28.4513 56.5368 29.4606 55.6235 30.1976C54.7102 30.9346 53.4648 31.303 51.8873 31.303L46.6536 31.3026ZM48.3024 22.5191H51.0006C51.6869 22.5191 52.1914 22.3951 52.5143 22.1471C52.8371 21.8991 52.9979 21.5202 52.9966 21.0105C52.9966 20.501 52.8352 20.1256 52.5124 19.8844C52.1895 19.6431 51.685 19.5224 50.9987 19.5224H48.3024V22.5191ZM48.3024 28.5125H51.3714C52.0717 28.5125 52.5826 28.3783 52.9042 28.1098C53.2258 27.8413 53.3872 27.4382 53.3885 26.9005C53.3885 26.3632 53.227 25.9636 52.9042 25.7018C52.5813 25.4401 52.0704 25.3092 51.3714 25.3092H48.3024V28.5125Z" fill="#667085"/>
<path d="M61.1005 19.4813C60.4548 19.4813 59.957 19.3297 59.607 19.0266C59.257 18.7235 59.0814 18.2826 59.0801 17.704C59.0801 17.1394 59.2557 16.7054 59.607 16.4019C59.9583 16.0985 60.4561 15.9469 61.1005 15.9473C62.46 15.9473 63.1397 16.5328 63.1397 17.704C63.1397 18.2826 62.964 18.7235 62.6128 19.0266C62.2615 19.3297 61.7574 19.4813 61.1005 19.4813ZM61.1005 31.4888C60.5098 31.4888 60.06 31.3165 59.7512 30.9721C59.4424 30.6276 59.288 30.131 59.288 29.4821V22.9533C59.288 22.3058 59.4424 21.8091 59.7512 21.4634C60.06 21.1177 60.5098 20.9454 61.1005 20.9467C61.6907 20.9467 62.1472 21.1189 62.47 21.4634C62.7929 21.8078 62.9543 22.3045 62.9543 22.9533V29.485C62.9543 30.1329 62.7964 30.6296 62.4806 30.975C62.1647 31.3204 61.7047 31.4916 61.1005 31.4888Z" fill="#667085"/>
<path d="M70.8919 31.528C69.3543 31.528 68.2146 31.1698 67.4727 30.4533C66.7309 29.7369 66.3603 28.6553 66.361 27.2086V23.8399H65.6607C64.7403 23.8399 64.2802 23.3853 64.2802 22.4759C64.2802 21.5807 64.7403 21.1329 65.6607 21.1326H66.361V19.8512C66.361 19.2453 66.5187 18.7838 66.8342 18.4665C67.1497 18.1493 67.6029 17.9909 68.1936 17.9912C69.4161 17.9912 70.0273 18.6112 70.0273 19.8512V21.1326H71.7158C72.6499 21.1326 73.1169 21.5804 73.1169 22.4759C73.1169 23.3853 72.6499 23.8399 71.7158 23.8399H70.0273V27.0846C70.0273 28.0779 70.5283 28.5746 71.5304 28.5746C71.7177 28.5751 71.9044 28.5543 72.087 28.5126C72.2488 28.4733 72.4145 28.4525 72.5809 28.4506C72.6793 28.4402 72.7787 28.4525 72.8716 28.4865C72.9645 28.5206 73.0484 28.5755 73.1169 28.6471C73.2539 28.7917 73.3224 29.1188 73.3224 29.6286C73.3224 30.0419 73.2606 30.3899 73.137 30.6725C73.0134 30.9551 72.7939 31.1582 72.4784 31.2819C72.2236 31.3652 71.9615 31.4241 71.6957 31.4578C71.4297 31.4997 71.1611 31.5232 70.8919 31.528Z" fill="#667085"/>
<path d="M79.9241 31.529C78.7841 31.529 77.7919 31.3155 76.9476 30.8883C76.1271 30.483 75.4438 29.8441 74.9831 29.0514C74.5163 28.2526 74.2828 27.3019 74.2828 26.1994C74.2828 25.0968 74.5163 24.1489 74.9831 23.3555C75.4442 22.5678 76.1276 21.9349 76.9471 21.5368C77.7917 21.1164 78.7839 20.9062 79.9236 20.9062C80.3449 20.9084 80.7652 20.9465 81.1801 21.0202C81.6488 21.105 82.1053 21.2472 82.5395 21.4436C82.855 21.5676 83.0816 21.7571 83.2192 22.0122C83.3553 22.2617 83.416 22.5456 83.3941 22.8292C83.3769 23.1074 83.292 23.377 83.1469 23.6146C83.0124 23.841 82.7999 24.0101 82.5496 24.0899C82.2941 24.1726 82.0092 24.1381 81.695 23.9866C81.2626 23.7847 80.7919 23.679 80.315 23.6766C79.5869 23.6766 79.0239 23.897 78.626 24.3379C78.2281 24.7788 78.029 25.3988 78.0287 26.1979C78.0287 27.0111 78.2278 27.6416 78.626 28.0892C79.0242 28.5368 79.5872 28.7611 80.315 28.7621C80.5434 28.7612 80.7711 28.737 80.9947 28.69C81.2368 28.6378 81.4718 28.5571 81.695 28.4497C82.0246 28.2984 82.3094 28.2675 82.5496 28.3569C82.7887 28.4465 82.991 28.6138 83.1244 28.8322C83.2705 29.0655 83.3556 29.332 83.3715 29.607C83.3935 29.8906 83.3328 30.1745 83.1967 30.4241C83.0591 30.6804 82.8256 30.8698 82.4964 30.9922C82.0678 31.1867 81.6175 31.3291 81.1552 31.4161C80.7489 31.4895 80.337 31.5273 79.9241 31.529Z" fill="#667085"/>
<path d="M90.1256 31.528C88.9999 31.528 88.0181 31.3145 87.1801 30.8873C86.363 30.48 85.6828 29.8414 85.2234 29.0504C84.7568 28.2494 84.5234 27.3041 84.5231 26.2147C84.5231 25.1128 84.7565 24.1656 85.2234 23.3733C85.6851 22.586 86.3649 21.9505 87.1801 21.544C88.0178 21.1172 88.9996 20.9036 90.1256 20.9033C91.2515 20.903 92.2333 21.1166 93.071 21.544C93.8848 21.9488 94.5618 22.585 95.0177 23.3733C95.4775 24.1653 95.7074 25.1125 95.7074 26.2147C95.7074 27.3041 95.4775 28.2479 95.0177 29.0461C94.5644 29.8389 93.8869 30.479 93.071 30.8854C92.2337 31.3135 91.2519 31.5277 90.1256 31.528ZM90.1256 28.8207C90.384 28.8265 90.6405 28.7737 90.8758 28.6664C91.1112 28.559 91.3194 28.3999 91.485 28.2006C91.8423 27.7873 92.0208 27.126 92.0205 26.2166C92.0205 25.2938 91.842 24.6291 91.485 24.2225C91.128 23.8159 90.6748 23.6126 90.1256 23.6126C89.5629 23.6126 89.1029 23.8159 88.7455 24.2225C88.3882 24.6291 88.2097 25.2932 88.21 26.2147C88.21 27.124 88.3885 27.7854 88.7455 28.1987C89.1026 28.6121 89.5626 28.8194 90.1256 28.8207Z" fill="#667085"/>
<path d="M99.4478 19.4813C98.8021 19.4813 98.3043 19.3297 97.9543 19.0266C97.6043 18.7235 97.4286 18.2826 97.4274 17.704C97.4274 17.1394 97.603 16.7054 97.9543 16.4019C98.3055 16.0985 98.8034 15.9469 99.4478 15.9473C100.807 15.9473 101.487 16.5328 101.487 17.704C101.487 18.2826 101.311 18.7235 100.96 19.0266C100.609 19.3297 100.105 19.4813 99.4478 19.4813ZM99.4478 31.4888C98.8574 31.4888 98.4076 31.3165 98.0985 30.9721C97.7893 30.6276 97.6349 30.131 97.6353 29.4821V22.9533C97.6353 22.3058 97.7897 21.8091 98.0985 21.4634C98.4073 21.1177 98.857 20.9454 99.4478 20.9467C100.038 20.9467 100.494 21.1189 100.817 21.4634C101.14 21.8078 101.302 22.3045 101.302 22.9533V29.485C101.302 30.1329 101.144 30.6296 100.828 30.975C100.512 31.3204 100.052 31.4916 99.4478 31.4888Z" fill="#667085"/>
<path d="M105.563 31.4877C104.973 31.4877 104.523 31.3292 104.214 31.0123C103.905 30.6955 103.751 30.2341 103.75 29.6281V22.7869C103.75 21.5607 104.348 20.9476 105.542 20.9476C106.628 20.9476 107.219 21.478 107.315 22.5389C107.654 22.0192 108.127 21.6014 108.684 21.3302C109.254 21.0476 109.889 20.9062 110.59 20.9062C111.798 20.9062 112.694 21.2645 113.278 21.9809C113.862 22.6974 114.154 23.7996 114.153 25.2876V29.6281C114.153 30.2347 113.995 30.6963 113.679 31.0128C113.364 31.3294 112.91 31.4878 112.32 31.4882C111.729 31.4882 111.276 31.3297 110.961 31.0128C110.645 30.6959 110.486 30.2344 110.486 29.6281V25.4323C110.486 24.8123 110.379 24.3714 110.166 24.1096C109.953 23.8478 109.641 23.7168 109.229 23.7165C108.68 23.7165 108.24 23.8927 107.911 24.2452C107.582 24.5976 107.417 25.0694 107.417 25.6606V29.6281C107.417 30.8678 106.799 31.4877 105.563 31.4877Z" fill="#667085"/>
<path d="M117.998 31.3004C117.394 31.3004 116.958 31.1593 116.69 30.877C116.422 30.5947 116.288 30.1782 116.288 29.6274C116.282 29.2675 116.367 28.9119 116.536 28.594C116.719 28.2665 116.947 27.9669 117.215 27.7044L120.819 23.9224C121.355 23.3578 121.736 22.8653 121.962 22.4449C122.189 22.0245 122.302 21.608 122.302 21.1953C122.302 20.1485 121.636 19.6249 120.304 19.6246C119.947 19.6284 119.591 19.6736 119.243 19.7592C118.831 19.8625 118.433 20.0187 118.059 20.2239C117.689 20.4031 117.352 20.4548 117.05 20.3792C116.759 20.3101 116.498 20.1465 116.309 19.9139C116.118 19.6832 115.993 19.4045 115.948 19.1079C115.9 18.8016 115.947 18.488 116.082 18.2092C116.219 17.9128 116.466 17.6681 116.824 17.4752C117.446 17.1484 118.107 16.9019 118.79 16.7418C119.462 16.5842 120.15 16.5044 120.84 16.5039C122.515 16.5039 123.796 16.869 124.681 17.5992C125.567 18.3295 126.01 19.3835 126.01 20.7613C126.011 21.6372 125.807 22.5011 125.413 23.2826C125.014 24.0818 124.348 24.9429 123.415 25.866L121.068 28.2211H125.166C126.21 28.2211 126.732 28.7308 126.732 29.7504C126.732 30.7838 126.21 31.3004 125.166 31.3004H117.998Z" fill="#667085"/>
<path d="M136.156 31.5297C134.495 31.5297 133.084 31.2197 131.923 30.5997C130.762 29.9797 129.88 29.1113 129.276 27.9947C128.672 26.8787 128.37 25.5767 128.37 24.0886C128.37 22.5458 128.689 21.206 129.328 20.0692C129.967 18.9323 130.883 18.0539 132.078 17.4339C133.272 16.8139 134.714 16.5039 136.403 16.5039C137.108 16.5059 137.811 16.5717 138.504 16.7005C139.238 16.8379 139.947 17.0855 140.607 17.4349C140.964 17.6002 141.208 17.8311 141.338 18.1275C141.469 18.4223 141.512 18.7488 141.462 19.0676C141.419 19.3865 141.295 19.6891 141.102 19.9461C140.914 20.1985 140.65 20.3838 140.35 20.4748C140.041 20.571 139.687 20.5296 139.289 20.3508C138.437 19.9516 137.483 19.7518 136.426 19.7515C135.039 19.7515 134.006 20.1235 133.326 20.8675C132.647 21.6115 132.307 22.6862 132.306 24.0915C132.306 25.4969 132.65 26.5578 133.336 27.2742C134.023 27.9907 135.039 28.3489 136.385 28.3489C137.016 28.3489 137.723 28.2528 138.506 28.0605V25.7636H137.063C136.087 25.7636 135.6 25.3158 135.6 24.4203C135.6 23.5388 136.088 23.0979 137.063 23.0976H140.111C141.101 23.0976 141.596 23.5942 141.596 24.5875V29.1535C141.596 29.5668 141.51 29.9181 141.338 30.2075C141.166 30.4968 140.895 30.7035 140.524 30.8275C139.114 31.2905 137.641 31.5276 136.157 31.5302L136.156 31.5297Z" fill="#667085"/>
<path d="M149.418 31.528C148.292 31.528 147.31 31.3145 146.473 30.8873C145.655 30.4801 144.975 29.8415 144.516 29.0504C144.05 28.2494 143.816 27.3041 143.816 26.2147C143.816 25.1128 144.05 24.1656 144.517 23.3733C144.978 22.586 145.658 21.9505 146.473 21.544C147.311 21.1172 148.293 20.9036 149.419 20.9033C150.545 20.903 151.526 21.1166 152.364 21.544C153.178 21.9488 153.855 22.585 154.311 23.3733C154.771 24.1653 155.001 25.1125 155.001 26.2147C155.001 27.3041 154.771 28.2479 154.311 29.0461C153.858 29.8389 153.18 30.479 152.364 30.8854C151.526 31.3135 150.544 31.5277 149.418 31.528ZM149.418 28.8207C149.676 28.8265 149.933 28.7737 150.168 28.6664C150.404 28.559 150.612 28.3999 150.777 28.2006C151.134 27.7873 151.313 27.126 151.313 26.2166C151.313 25.2938 151.134 24.6291 150.777 24.2225C150.42 23.8159 149.967 23.6126 149.418 23.6126C148.855 23.6126 148.395 23.8159 148.038 24.2225C147.681 24.6291 147.503 25.2932 147.505 26.2147C147.505 27.124 147.683 27.7854 148.04 28.1987C148.397 28.6121 148.857 28.8194 149.418 28.8207Z" fill="#667085"/>
<path opacity="0.9" d="M20.9462 40C29.753 40 36.8924 32.8366 36.8924 24C36.8924 15.1634 29.753 8 20.9462 8C12.1393 8 5 15.1634 5 24C5 32.8366 12.1393 40 20.9462 40Z" fill="url(#paint0_radial_947_17404)"/>
<path d="M29.0333 25.3333C28.4288 24.5288 27.5698 23.9559 26.4563 23.6146C27.3808 23.2359 28.103 22.6582 28.6228 21.8815C29.1427 21.1048 29.4022 20.1955 29.4012 19.1535C29.4012 17.5834 28.8114 16.3285 27.6318 15.3887C26.4521 14.449 24.786 13.9802 22.6333 13.9824H15.7236C13.9117 13.9824 13.0056 14.8823 13.0052 16.6821V31.3147C13.0052 33.1142 13.9114 34.0139 15.7236 34.0139H22.915C25.0865 34.0139 26.7997 33.5072 28.0547 32.4937C29.3097 31.4802 29.9376 30.0927 29.9382 28.331C29.9391 27.1378 29.6375 26.1386 29.0333 25.3333Z" fill="url(#paint1_linear_947_17404)"/>
<mask id="mask0_947_17404" style="mask-type:luminance" maskUnits="userSpaceOnUse" x="13" y="13" width="17" height="22">
<path d="M29.0333 25.3333C28.4288 24.5288 27.5698 23.9559 26.4563 23.6146C27.3808 23.2359 28.103 22.6582 28.6228 21.8815C29.1427 21.1048 29.4022 20.1955 29.4012 19.1535C29.4012 17.5834 28.8114 16.3285 27.6318 15.3887C26.4521 14.449 24.786 13.9802 22.6333 13.9824H15.7236C13.9117 13.9824 13.0056 14.8823 13.0052 16.6821V31.3147C13.0052 33.1142 13.9114 34.0139 15.7236 34.0139H22.915C25.0865 34.0139 26.7997 33.5072 28.0547 32.4937C29.3097 31.4802 29.9376 30.0927 29.9382 28.331C29.9391 27.1378 29.6375 26.1386 29.0333 25.3333Z" fill="white"/>
</mask>
<g mask="url(#mask0_947_17404)">
<path d="M31.8481 18.1924C21.0919 17.0336 20.074 24.0411 12.6288 25.0437C12.1498 25.1081 11.2469 25.1182 10.6941 25.0591V30.3162C11.2469 30.3748 12.1493 30.3642 12.6288 30.3003C20.074 29.2977 21.0919 22.2888 31.8481 23.449V18.1924Z" fill="#667085"/>
<path d="M33.2956 6.79043C22.5394 5.62972 21.5215 12.6391 14.0763 13.6417C13.5973 13.7061 12.6944 13.7162 12.1416 13.6571V19.8221C12.6944 19.8807 13.5968 19.8701 14.0763 19.8062C21.5215 18.8041 22.5394 11.7957 33.2956 12.9554V6.79043Z" fill="#667085"/>
<path d="M31.4682 28.388C20.7116 27.2278 19.6941 34.2367 12.2489 35.2393C11.7699 35.3037 10.867 35.3143 10.3142 35.2552V41.4201C10.867 41.4792 11.7694 41.4682 12.2489 41.4043C19.6941 40.4022 20.7116 33.3927 31.4682 34.5534V28.388Z" fill="#667085"/>
</g>
<path d="M17.8374 16.3165C17.2914 16.3165 16.8694 16.167 16.5714 15.8681C16.2735 15.5691 16.1245 15.1334 16.1245 14.5608V13.4808C16.1245 12.9079 16.2735 12.472 16.5714 12.173C16.8694 11.8741 17.2914 11.7246 17.8374 11.7246C18.3835 11.7246 18.8055 11.8739 19.1035 12.1726C19.4014 12.4712 19.5504 12.9073 19.5504 13.4808V14.5617C19.5504 15.1346 19.4044 15.5704 19.1126 15.869C18.8207 16.1677 18.3956 16.3168 17.8374 16.3165Z" fill="#667085"/>
<path d="M23.0941 32.4092C23.6404 32.4092 24.0625 32.5587 24.3601 32.8576C24.6577 33.1565 24.8067 33.5925 24.807 34.1654V34.5201C24.807 35.093 24.658 35.5289 24.3601 35.8279C24.0621 36.1268 23.6401 36.2763 23.0941 36.2763C22.548 36.2763 22.126 36.1268 21.828 35.8279C21.5301 35.5289 21.3814 35.093 21.3821 34.5201V34.1654C21.3821 33.5925 21.528 33.1565 21.8199 32.8576C22.1118 32.5587 22.5365 32.4092 23.0941 32.4092Z" fill="#667085"/>
<path d="M16.5311 35.8269C16.8291 36.1259 17.2511 36.2753 17.7972 36.2753C18.3432 36.2753 18.8031 36.1259 19.1034 35.8269C19.4038 35.528 19.5503 35.092 19.5503 34.5191V32.5409C19.5537 32.2997 19.5206 32.0594 19.4521 31.8281C18.3806 32.6043 17.2875 33.3786 16.0842 34.0034V34.5201C16.0842 35.093 16.2332 35.5286 16.5311 35.8269Z" fill="#667085"/>
<path d="M24.3601 12.1726C24.0621 11.8739 23.6401 11.7246 23.0941 11.7246C22.548 11.7246 22.126 11.8739 21.828 12.1726C21.5307 12.4715 21.3821 12.9076 21.3821 13.4808V14.5617C21.3821 15.1346 21.5311 15.5704 21.829 15.869C21.8558 15.896 21.8841 15.9209 21.9128 15.9455C22.8105 15.3081 23.7436 14.6896 24.8079 14.1739V13.4808C24.8076 12.9085 24.6583 12.4725 24.3601 12.1726Z" fill="#667085"/>
</g>
<defs>
<radialGradient id="paint0_radial_947_17404" cx="0" cy="0" r="1" gradientUnits="userSpaceOnUse" gradientTransform="translate(20.9462 24) scale(15.9462 16)">
<stop stop-color="#98A2B3" stop-opacity="0.1"/>
<stop offset="0.2" stop-color="#2E2E2E" stop-opacity="0.13"/>
<stop offset="0.2001" stop-color="#98A2B3" stop-opacity="0.138437"/>
<stop offset="0.3999" stop-color="#98A2B3" stop-opacity="0.211925"/>
<stop offset="0.4" stop-color="#98A2B3" stop-opacity="0.22"/>
<stop offset="0.697917" stop-color="#98A2B3" stop-opacity="0.36"/>
<stop offset="0.81" stop-color="#98A2B3" stop-opacity="0.57"/>
<stop offset="1" stop-color="#98A2B3" stop-opacity="0.8"/>
</radialGradient>
<linearGradient id="paint1_linear_947_17404" x1="13.0052" y1="23.9982" x2="29.9382" y2="23.9982" gradientUnits="userSpaceOnUse">
<stop stop-color="#98A2B3" stop-opacity="0.1"/>
<stop offset="0.17" stop-color="#98A2B3" stop-opacity="0.13"/>
<stop offset="0.35" stop-color="#98A2B3" stop-opacity="0.22"/>
<stop offset="0.53" stop-color="#98A2B3" stop-opacity="0.36"/>
<stop offset="0.71" stop-color="#98A2B3" stop-opacity="0.57"/>
<stop offset="0.9" stop-color="#98A2B3" stop-opacity="0.83"/>
<stop offset="1" stop-color="#98A2B3"/>
</linearGradient>
<clipPath id="clip0_947_17404">
<rect width="150" height="32" fill="white" transform="translate(5 8)"/>
</clipPath>
</defs>
</svg>
