<svg width="160" height="38" viewBox="0 0 160 38" fill="none" xmlns="http://www.w3.org/2000/svg">
<g clip-path="url(#clip0_866_5190)">
<path d="M23.1869 26.9337L16.5206 29.7988V29.5122C15.2352 29.8376 13.8113 30.0251 12.4627 30.0854C6.19343 30.0251 1.21731 26.7815 1.1594 22.9218V21.489C3.21851 24.449 7.41015 26.4322 12.4627 26.3606C14.1719 26.4322 15.9206 26.1648 17.3899 25.7875L17.9696 24.3546C16.2269 24.8687 14.3248 25.2263 12.4627 25.2143C6.19343 25.2263 1.21731 21.9827 1.1594 18.0513V16.9051C3.21851 19.6412 7.40119 21.6251 12.4627 21.4895C14.7397 21.6251 16.9666 21.1516 18.8388 20.3433L19.129 18.9104C17.2997 19.8645 14.929 20.4185 12.4627 20.3433C6.19343 20.4185 1.21731 17.1749 1.1594 13.1803V12.034C3.21851 14.834 7.41015 16.8173 12.4627 16.9051C15.3343 16.8173 18.0567 16.0669 20.2884 14.8991L20.5785 13.1797C18.5528 14.6639 15.5958 15.6203 12.4627 15.7588C6.19343 15.6203 1.21791 12.3761 1.1594 8.30925C1.21731 4.44119 6.19343 1.19761 12.4627 1.14627C16.2 1.19761 19.671 2.49313 21.7379 4.58448L21.9391 4.91582L23.4006 4.92179L23.1869 4.58448C21.1313 1.82269 17.0203 0 12.4627 0C5.52597 0 0 3.7797 0 8.30925V23.2084C0.243582 27.6298 5.64358 31.231 12.4627 31.231C16.9666 31.231 21.0143 29.48 23.1869 26.9337Z" fill="#667085"/>
<path d="M20.4752 37.016L22.8155 27.1838L16.0878 30.0757L20.1833 13.0142H12.2848L14.3326 4.62797H39.4884L37.4406 13.0142H29.2508L27.4955 17.6411L36.563 13.8817L20.4752 37.016ZM24.5708 25.1593L23.4006 30.9432L33.0531 16.4847L25.1552 19.9551L28.6657 11.8578H36.563L38.0257 5.78498H15.2102L13.7475 11.8578H21.6454L17.8424 28.0518L24.5708 25.1605V25.1593ZM56.8185 10.1665C56.7493 11.1253 56.3952 11.8799 55.7564 12.4315C55.1176 12.9826 54.2758 13.2578 53.2311 13.2578C52.089 13.2578 51.1893 12.8733 50.5349 12.1038C49.88 11.3348 49.5522 10.2787 49.5522 8.93603V8.39095C49.5522 7.53424 49.7033 6.77901 50.0054 6.12588C50.3075 5.47334 50.7391 4.97185 51.2997 4.62319C51.8609 4.27394 52.5128 4.09961 53.2561 4.09961C54.2842 4.09961 55.1128 4.37543 55.7415 4.92648C56.3696 5.47692 56.7326 6.25065 56.8311 7.24647H54.9946C54.9499 6.67095 54.7893 6.25364 54.514 5.99453C54.2382 5.73543 53.8191 5.60588 53.2561 5.60588C52.6436 5.60588 52.1857 5.82498 51.8818 6.26379C51.5773 6.70259 51.4215 7.38319 51.4131 8.30558V8.97901C51.4131 9.942 51.5594 10.6459 51.8508 11.0907C52.1433 11.5354 52.603 11.7581 53.2317 11.7581C53.7988 11.7581 54.2221 11.6286 54.5015 11.3695C54.7815 11.1104 54.9415 10.7092 54.9821 10.1665H56.8185ZM66.3015 8.8811C66.3015 9.75871 66.1463 10.5277 65.8358 11.1886C65.526 11.8501 65.0824 12.3599 64.5045 12.7193C63.9272 13.0781 63.2651 13.2578 62.5182 13.2578C61.7797 13.2578 61.1206 13.0805 60.5409 12.7253C59.9618 12.3701 59.5122 11.8632 59.194 11.2041C58.8758 10.545 58.7146 9.78677 58.7105 8.92946V8.48886C58.7105 7.61125 58.8687 6.83931 59.1851 6.17245C59.5015 5.50498 59.9481 4.99274 60.526 4.63513C61.1033 4.27812 61.7636 4.09961 62.5063 4.09961C63.249 4.09961 63.9093 4.27871 64.4866 4.63513C65.0639 4.99274 65.5111 5.50498 65.8269 6.17185C66.1433 6.83931 66.3015 7.60946 66.3015 8.48289V8.8811ZM64.4406 8.47692C64.4406 7.542 64.2734 6.83215 63.9391 6.34618C63.6042 5.8608 63.1266 5.61782 62.5063 5.61782C61.8896 5.61782 61.4143 5.85782 61.0794 6.33722C60.7451 6.81662 60.5755 7.51931 60.5719 8.44647V8.8811C60.5719 9.79095 60.7391 10.4972 61.0734 10.9987C61.4078 11.5008 61.8896 11.7521 62.5182 11.7521C63.1343 11.7521 63.6078 11.5104 63.9391 11.0268C64.2693 10.5432 64.4364 9.83812 64.4406 8.91155V8.47692ZM70.5433 13.1354H68.7069V4.222H70.5433V13.1354ZM80.449 13.1354H78.612L75.037 7.27095V13.1354H73.2006V4.222H75.037L78.6185 10.099V4.222H80.449V13.1354ZM89.5403 5.70976H86.8102V13.1354H84.9737V5.70976H82.28V4.222H89.5403V5.70976ZM96.9051 9.27274H93.3791V11.6602H97.517V13.1354H91.5421V4.222H97.5051V5.70976H93.3791V7.83394H96.9051V9.27274ZM101.386 11.6602H105.286V13.1354H99.5499V4.222H101.386V11.6608V11.6602ZM112.657 9.27215H109.131V11.6602H113.269V13.1354H107.294V4.222H113.257V5.70976H109.131V7.83394H112.657V9.27215ZM122.354 12.0089C122.023 12.4047 121.556 12.7121 120.952 12.9301C120.348 13.1486 119.679 13.2584 118.944 13.2584C118.173 13.2584 117.496 13.0895 116.915 12.7527C116.333 12.416 115.884 11.9277 115.568 11.2865C115.251 10.6459 115.09 9.89304 115.081 9.02797V8.4214C115.081 7.53185 115.231 6.7617 115.531 6.11095C115.831 5.46021 116.264 4.9617 116.829 4.61722C117.394 4.27215 118.056 4.09961 118.816 4.09961C119.872 4.09961 120.699 4.35155 121.295 4.85603C121.891 5.35991 122.244 6.09364 122.354 7.05662H120.566C120.485 6.54618 120.304 6.17304 120.024 5.93603C119.745 5.69961 119.36 5.5814 118.87 5.5814C118.246 5.5814 117.771 5.81603 117.444 6.28528C117.118 6.75453 116.952 7.45244 116.948 8.37901V8.94797C116.948 9.88289 117.126 10.5886 117.481 11.0662C117.836 11.5438 118.356 11.7826 119.042 11.7826C119.731 11.7826 120.224 11.6357 120.517 11.342V9.80528H118.846V8.45245H122.354V12.0089ZM128.096 9.87274H126.633V13.1354H124.796V4.222H128.109C129.161 4.222 129.974 4.45662 130.544 4.92648C131.116 5.39573 131.402 6.05842 131.402 6.91573C131.402 7.52409 131.27 8.03095 131.007 8.43692C130.744 8.84289 130.344 9.16647 129.81 9.40707L131.739 13.0495V13.1354H129.767L128.096 9.87274ZM126.633 8.38498H128.114C128.576 8.38498 128.933 8.26737 129.186 8.03274C129.439 7.79812 129.565 7.47513 129.565 7.06259C129.565 6.6423 129.446 6.31155 129.207 6.07095C128.968 5.83036 128.602 5.70976 128.109 5.70976H126.633L126.633 8.38498ZM138.785 11.2984H135.565L134.953 13.1354H133L136.318 4.222H138.02L141.356 13.1354H139.404L138.785 11.2984ZM136.061 9.81185H138.289L137.169 6.47453L136.061 9.81185ZM144.98 9.99513V13.1354H143.144V4.222H146.621C147.29 4.222 147.879 4.34439 148.387 4.58976C148.896 4.83453 149.286 5.182 149.559 5.63334C149.833 6.08409 149.97 6.59752 149.97 7.17304C149.97 8.04647 149.671 8.73483 149.073 9.23871C148.475 9.74319 147.647 9.99513 146.59 9.99513H144.98ZM144.98 8.50737H146.621C147.107 8.50737 147.477 8.39334 147.732 8.16468C147.987 7.93603 148.115 7.60946 148.115 7.18558C148.115 6.74856 147.986 6.39513 147.729 6.12588C147.472 5.85722 147.117 5.71812 146.664 5.70976H144.98V8.50737ZM159.44 13.1354H157.604V9.31573H154.023V13.1354H152.186V4.222H154.023V7.83394H157.604V4.222H159.44V13.1354Z" fill="#667085"/>
<path d="M54.603 21.3923H52.6173V26.867H51.52V21.3923H49.5522V20.5004H54.603V21.3923ZM56.7403 22.652C57.0872 22.2496 57.526 22.0484 58.0567 22.0484C59.0657 22.0484 59.5767 22.624 59.5911 23.7756V26.867H58.529V23.815C58.529 23.4884 58.4585 23.2574 58.317 23.1219C58.1755 22.9864 57.9678 22.9189 57.6937 22.9189C57.2681 22.9189 56.9505 23.1081 56.7403 23.4867V26.867H55.6776V20.1505H56.7403V22.652ZM63.1069 26.9541C62.4334 26.9541 61.8878 26.7422 61.4693 26.3183C61.0513 25.8944 60.8418 25.329 60.8418 24.624V24.4926C60.8418 24.0204 60.9331 23.5983 61.1152 23.227C61.2836 22.8708 61.5496 22.5698 61.8824 22.3589C62.2123 22.1517 62.5949 22.044 62.9845 22.0484C63.6287 22.0484 64.1266 22.2538 64.4776 22.6646C64.8287 23.0759 65.0048 23.6574 65.0048 24.4096V24.8383H61.9128C61.9451 25.2287 62.0758 25.5374 62.3045 25.7649C62.5331 25.9923 62.8209 26.1064 63.1678 26.1064C63.6549 26.1064 64.0514 25.9093 64.3576 25.5153L64.9308 26.0622C64.7408 26.3455 64.4787 26.5728 64.1713 26.7207C63.8549 26.8759 63.5003 26.9541 63.1069 26.9541ZM62.9803 22.9004C62.6884 22.9004 62.4531 23.0031 62.274 23.2072C62.0949 23.4108 61.9803 23.695 61.9308 24.0598H63.9546V23.981C63.9319 23.6252 63.837 23.3565 63.6711 23.1744C63.5045 22.9923 63.2746 22.9004 62.9803 22.9004ZM69.1493 26.867V22.9231H68.4275V22.1356H69.1493V21.7028C69.1493 21.178 69.2949 20.7726 69.5863 20.4872C69.8782 20.2013 70.286 20.0586 70.8108 20.0586C70.9976 20.0586 71.1958 20.0849 71.4054 20.1374L71.3791 20.9684C71.2451 20.9435 71.1089 20.9317 70.9725 20.9332C70.4651 20.9332 70.2119 21.1941 70.2119 21.7159V22.1356H71.1731V22.9231H70.2119V26.867H69.1493ZM75.1743 26.4037C74.8627 26.7708 74.4191 26.9541 73.8448 26.9541C73.3319 26.9541 72.9433 26.8043 72.68 26.504C72.4161 26.2037 72.2842 25.7696 72.2842 25.2007V22.1356H73.3469V25.1875C73.3469 25.7881 73.5958 26.089 74.0943 26.089C74.6102 26.089 74.9588 25.904 75.1391 25.5338V22.1356H76.2018V26.867H75.2006L75.1743 26.4037ZM78.9737 20.9858V22.1356H79.8096V22.9231H78.9737V25.5637C78.9737 25.7446 79.0096 25.8753 79.0812 25.9553C79.1528 26.0353 79.28 26.0753 79.4633 26.0753C79.5863 26.0753 79.7099 26.061 79.8352 26.0317V26.8538C79.6076 26.9187 79.3722 26.9525 79.1355 26.9541C78.3194 26.9541 77.9116 26.504 77.9116 25.6031V22.9225H77.1331V22.1356H77.9111V20.9864H78.9737V20.9858ZM83.8448 26.4037C83.5325 26.7708 83.0896 26.9541 82.5152 26.9541C82.0018 26.9541 81.6137 26.8043 81.3499 26.504C81.086 26.2037 80.954 25.7696 80.954 25.2007V22.1356H82.0167V25.1875C82.0167 25.7881 82.2663 26.089 82.7648 26.089C83.2806 26.089 83.6287 25.904 83.8096 25.5338V22.1356H84.8722V26.867H83.871L83.8448 26.4037ZM88.7899 23.1064C88.6468 23.0829 88.502 23.0713 88.357 23.0717C87.8699 23.0717 87.5421 23.258 87.3731 23.6311V26.867H86.3105V22.1356H87.3254L87.3511 22.6646C87.6078 22.2538 87.9636 22.0484 88.4179 22.0484C88.5696 22.0484 88.6949 22.0687 88.794 22.1093L88.7899 23.1064ZM91.8197 26.9541C91.1463 26.9541 90.6006 26.7422 90.1821 26.3183C89.7642 25.8944 89.5546 25.329 89.5546 24.624V24.4926C89.5546 24.0204 89.646 23.5983 89.8281 23.227C89.9964 22.8708 90.2625 22.5698 90.5952 22.3589C90.9252 22.1517 91.3078 22.044 91.6973 22.0484C92.3415 22.0484 92.8394 22.2538 93.1904 22.6646C93.5415 23.0759 93.7176 23.6574 93.7176 24.4096V24.8383H90.6257C90.6579 25.2287 90.7887 25.5374 91.0173 25.7649C91.246 25.9923 91.5337 26.1064 91.8806 26.1064C92.3678 26.1064 92.7642 25.9093 93.0705 25.5153L93.6436 26.0622C93.4537 26.3455 93.1915 26.5728 92.8842 26.7207C92.5678 26.8759 92.2131 26.9541 91.8197 26.9541ZM91.6931 22.9004C91.4012 22.9004 91.166 23.0031 90.9869 23.2072C90.8078 23.4108 90.6931 23.695 90.6436 24.0598H92.6675V23.981C92.6448 23.6252 92.5499 23.3565 92.3839 23.1744C92.2173 22.9923 91.9875 22.9004 91.6931 22.9004ZM97.289 24.4574C97.289 23.9941 97.3809 23.5768 97.5648 23.2049C97.7334 22.8496 98.0024 22.5516 98.3385 22.3475C98.671 22.1481 99.0525 22.0484 99.4848 22.0484C100.122 22.0484 100.641 22.2538 101.039 22.6646C101.436 23.0759 101.652 23.621 101.684 24.3004L101.688 24.5493C101.688 25.0156 101.599 25.4329 101.42 25.8001C101.252 26.1539 100.985 26.4504 100.65 26.6526C100.316 26.8538 99.9302 26.9541 99.4931 26.9541C98.8257 26.9541 98.2914 26.732 97.8902 26.2878C97.4902 25.8431 97.289 25.2502 97.289 24.5099V24.4574ZM98.3516 24.5493C98.3516 25.0365 98.4525 25.4174 98.6537 25.6926C98.8543 25.9684 99.1343 26.1064 99.4931 26.1064C99.8513 26.1064 100.131 25.9661 100.33 25.6861C100.53 25.4067 100.63 24.9971 100.63 24.4574C100.63 23.9798 100.527 23.6007 100.322 23.3207C100.116 23.0407 99.837 22.901 99.4842 22.901C99.1379 22.901 98.8621 23.0383 98.6579 23.3141C98.4537 23.5899 98.3516 24.0007 98.3516 24.5493ZM103.319 26.867V22.9231H102.598V22.1356H103.319V21.7028C103.319 21.178 103.465 20.7726 103.756 20.4872C104.048 20.2013 104.456 20.0586 104.981 20.0586C105.168 20.0586 105.366 20.0849 105.576 20.1374L105.549 20.9684C105.415 20.9435 105.279 20.9317 105.143 20.9332C104.636 20.9332 104.382 21.1941 104.382 21.7159V22.1356H105.344V22.9231H104.382V26.867H103.319ZM110.066 22.1356L110.096 22.6299C110.429 22.2419 110.884 22.0484 111.46 22.0484C112.093 22.0484 112.526 22.2902 112.759 22.7744C113.103 22.2902 113.587 22.0484 114.211 22.0484C114.733 22.0484 115.121 22.1923 115.376 22.4813C115.631 22.7696 115.762 23.1953 115.768 23.7577V26.867H114.705V23.7887C114.705 23.4884 114.639 23.2681 114.508 23.1284C114.377 22.9881 114.16 22.9183 113.857 22.9183C113.615 22.9183 113.417 22.9834 113.264 23.1129C113.109 23.2467 112.997 23.4241 112.943 23.6222L112.947 26.867H111.885V23.7535C111.87 23.1971 111.586 22.9183 111.032 22.9183C110.607 22.9183 110.304 23.0914 110.127 23.4389V26.867H109.064V22.1356H110.066ZM117.018 24.458C117.018 23.9941 117.11 23.5768 117.293 23.2049C117.462 22.8495 117.731 22.5515 118.067 22.3475C118.399 22.1481 118.782 22.0484 119.213 22.0484C119.851 22.0484 120.37 22.2538 120.767 22.6646C121.165 23.0759 121.38 23.621 121.412 24.3004L121.417 24.5493C121.417 25.0156 121.327 25.4329 121.148 25.8001C120.981 26.1539 120.713 26.4504 120.378 26.6526C120.044 26.8538 119.659 26.9541 119.221 26.9541C118.554 26.9541 118.02 26.732 117.619 26.2878C117.219 25.8431 117.018 25.2502 117.018 24.5099V24.458ZM118.081 24.5493C118.081 25.0365 118.181 25.4174 118.382 25.6926C118.583 25.9684 118.863 26.1064 119.221 26.1064C119.58 26.1064 119.859 25.9661 120.059 25.6861C120.259 25.4067 120.359 24.9971 120.359 24.4574C120.359 23.9798 120.256 23.6007 120.05 23.3207C119.845 23.0407 119.565 22.901 119.213 22.901C118.866 22.901 118.59 23.0383 118.386 23.3141C118.183 23.5899 118.081 24.0007 118.081 24.5493ZM123.66 22.1356L123.69 22.6825C124.04 22.2598 124.499 22.0484 125.067 22.0484C126.053 22.0484 126.554 22.6126 126.572 23.7404V26.867H125.509V23.8019C125.509 23.5016 125.444 23.2789 125.315 23.135C125.185 22.9905 124.973 22.9183 124.678 22.9183C124.25 22.9183 123.931 23.1123 123.721 23.4998V26.867H122.658V22.1356H123.66ZM130.096 26.9541C129.423 26.9541 128.876 26.7422 128.459 26.3183C128.04 25.8944 127.831 25.329 127.831 24.624V24.4926C127.831 24.0204 127.922 23.5983 128.104 23.227C128.272 22.8707 128.539 22.5697 128.872 22.3589C129.201 22.1518 129.584 22.0441 129.973 22.0484C130.618 22.0484 131.115 22.2538 131.467 22.6646C131.818 23.0759 131.993 23.6574 131.993 24.4096V24.8383H128.902C128.934 25.2287 129.064 25.5374 129.293 25.7649C129.522 25.9923 129.81 26.1064 130.157 26.1064C130.644 26.1064 131.041 25.9093 131.346 25.5153L131.919 26.0622C131.73 26.3454 131.468 26.5727 131.161 26.7207C130.844 26.8759 130.49 26.9541 130.096 26.9541ZM129.969 22.9004C129.678 22.9004 129.442 23.0031 129.263 23.2072C129.084 23.4108 128.969 23.695 128.919 24.0598H130.944V23.981C130.921 23.6252 130.826 23.3565 130.66 23.1744C130.494 22.9923 130.263 22.9004 129.969 22.9004ZM134.774 25.3452L135.736 22.1356H136.869L134.988 27.584C134.7 28.3798 134.21 28.778 133.519 28.778C133.346 28.7752 133.174 28.7487 133.008 28.6992V27.8771L133.209 27.8902C133.477 27.8902 133.679 27.8413 133.814 27.744C133.95 27.6461 134.057 27.4819 134.136 27.252L134.289 26.8449L132.627 22.1356H133.773L134.774 25.3452Z" fill="#667085"/>
</g>
<defs>
<clipPath id="clip0_866_5190">
<rect width="160" height="37.0149" fill="white"/>
</clipPath>
</defs>
</svg>
