<svg width="20" height="20" viewBox="0 0 20 20" fill="none" xmlns="http://www.w3.org/2000/svg">
<g id="Icons" clip-path="url(#clip0_12_150)">
<path id="Icon" d="M1.66675 10.0003H18.3334M1.66675 10.0003C1.66675 14.6027 5.39771 18.3337 10.0001 18.3337M1.66675 10.0003C1.66675 5.39795 5.39771 1.66699 10.0001 1.66699M18.3334 10.0003C18.3334 14.6027 14.6025 18.3337 10.0001 18.3337M18.3334 10.0003C18.3334 5.39795 14.6025 1.66699 10.0001 1.66699M10.0001 1.66699C12.0845 3.94895 13.269 6.91035 13.3334 10.0003C13.269 13.0903 12.0845 16.0517 10.0001 18.3337M10.0001 1.66699C7.91568 3.94895 6.73112 6.91035 6.66675 10.0003C6.73112 13.0903 7.91568 16.0517 10.0001 18.3337" stroke="#667085" stroke-width="2" stroke-linecap="round" stroke-linejoin="round"/>
</g>
<defs>
<clipPath id="clip0_12_150">
<rect width="20" height="20" fill="white"/>
</clipPath>
</defs>
</svg>
