<svg width="40" height="37" viewBox="0 0 40 37" fill="none" xmlns="http://www.w3.org/2000/svg">
<path fill-rule="evenodd" clip-rule="evenodd" d="M15.2933 10.5907C14.3644 11.7821 13.4727 13.0858 12.6425 14.4875C11.7806 15.9428 11.0431 17.4056 10.431 18.8441C11.0434 20.2838 11.7813 21.7478 12.644 23.2043C13.4746 24.6066 14.3668 25.9109 15.2961 27.1028C16.7947 27.2949 18.3709 27.3978 20 27.3978C21.6292 27.3978 23.2055 27.2949 24.7041 27.1028C25.6339 25.9105 26.5265 24.6057 27.3574 23.2028C28.2198 21.7468 28.9575 20.2833 29.5697 18.8441C28.9578 17.4061 28.2205 15.9438 27.3589 14.4889C26.5283 13.0867 25.6362 11.7826 24.707 10.5908C23.2075 10.3984 21.6303 10.2954 20 10.2954C18.3698 10.2954 16.7927 10.3984 15.2933 10.5907ZM12.7789 11.0105C12.2031 11.8304 11.6475 12.6897 11.1177 13.5843C10.5407 14.5584 10.0152 15.539 9.54215 16.5176C9.04328 15.0436 8.68348 13.6156 8.46384 12.2701C9.76426 11.7615 11.2141 11.3352 12.7789 11.0105ZM16.9356 8.64106C17.9356 8.56334 18.9591 8.52314 20 8.52314C21.0409 8.52314 22.0645 8.56334 23.0644 8.64107C22.0587 7.53817 21.0279 6.56661 19.9998 5.74265C18.9718 6.56666 17.9411 7.53822 16.9356 8.64106ZM18.5241 4.65993C17.0956 5.84974 15.6844 7.28775 14.3481 8.93254C12.1334 9.26193 10.0748 9.78089 8.24885 10.4558C7.98644 6.76108 8.93502 4.21631 10.7126 3.16348C12.5054 2.10163 15.2238 2.50867 18.3718 4.55965C18.4225 4.59269 18.4733 4.62611 18.5241 4.65993ZM21.4754 4.65976C22.9041 5.84955 24.3156 7.28762 25.6521 8.93258C27.8672 9.26204 29.9262 9.78115 31.7524 10.4563C32.0153 6.76049 31.0667 4.21501 29.2888 3.162C27.496 2.10015 24.7776 2.50719 21.6296 4.55817C21.5782 4.59163 21.5268 4.6255 21.4754 4.65976ZM33.4699 11.169C33.4862 11.0063 33.5004 10.8447 33.5127 10.6844C33.8135 6.73795 32.8836 3.23136 30.192 1.63713C27.5003 0.0429075 23.9783 0.912712 20.6621 3.07326C20.4415 3.217 20.2206 3.36713 19.9996 3.5235C19.7794 3.36767 19.5592 3.21803 19.3392 3.07473C16.0231 0.914191 12.5011 0.0443866 9.80943 1.63861C7.11777 3.23284 6.18784 6.73943 6.48874 10.6859C6.50091 10.8455 6.51511 11.0064 6.53132 11.1685C6.38286 11.2375 6.23645 11.3076 6.09215 11.3788C2.54323 13.1311 0 15.7182 0 18.8466C0 21.975 2.54323 24.5621 6.09215 26.3143C6.23595 26.3853 6.38185 26.4552 6.52978 26.5239C6.51359 26.6858 6.49942 26.8464 6.48726 27.0059C6.18637 30.9523 7.11629 34.4589 9.80795 36.0532C12.4996 37.6474 16.0216 36.7776 19.3378 34.617C19.5582 34.4734 19.7789 34.3234 19.9996 34.1672C20.2211 34.324 20.4425 34.4744 20.6636 34.6185C23.9798 36.7791 27.5018 37.6489 30.1934 36.0546C32.8851 34.4604 33.815 30.9538 33.5141 27.0074C33.5019 26.8473 33.4877 26.6859 33.4714 26.5234C33.6189 26.4548 33.7644 26.3851 33.9079 26.3143C37.4568 24.5621 40 21.975 40 18.8466C40 15.7182 37.4568 13.1311 33.9079 11.3788C33.7639 11.3078 33.6179 11.2378 33.4699 11.169ZM31.5372 12.2705C30.2367 11.7618 28.7866 11.3354 27.2215 11.0106C27.7977 11.8309 28.3535 12.6906 28.8837 13.5858C29.4604 14.5595 29.9857 15.5397 30.4586 16.5178C30.9576 15.044 31.3175 13.616 31.5372 12.2705ZM31.4872 18.844C32.2921 16.8363 32.8688 14.8664 33.2078 13.01C36.5212 14.6672 38.2277 16.7804 38.2277 18.8466C38.2277 20.9124 36.5218 23.0253 33.2094 24.6824C32.8702 22.8246 32.293 20.8532 31.4872 18.844ZM30.4589 21.1703C29.9856 22.1497 29.4597 23.1311 28.8823 24.106C28.3516 25.0018 27.7953 25.8622 27.2187 26.6832C28.7854 26.3581 30.237 25.9313 31.5388 25.422C31.3189 24.0753 30.9586 22.6457 30.4589 21.1703ZM31.7539 27.2363C29.9266 27.912 27.866 28.4315 25.6492 28.761C24.3134 30.4047 22.9029 31.8418 21.4752 33.0309C21.5272 33.0655 21.5792 33.0998 21.6311 33.1336C24.7791 35.1846 27.4975 35.5916 29.2903 34.5298C31.068 33.4768 32.0166 30.9317 31.7539 27.2363ZM19.9998 31.9479C21.0269 31.1246 22.0567 30.154 23.0615 29.0523C22.0624 29.1299 21.0399 29.17 20 29.17C18.9601 29.17 17.9376 29.1299 16.9386 29.0523C17.9431 30.154 18.9728 31.1246 19.9998 31.9479ZM12.7817 26.6833C12.2055 25.8627 11.6494 25.0028 11.1191 24.1074C10.5415 23.1322 10.0154 22.1504 9.54189 21.1706C9.04229 22.6461 8.68204 24.0756 8.46224 25.4224C9.76386 25.9316 11.2153 26.3583 12.7817 26.6833ZM8.24732 27.2368C10.0744 27.9123 12.1346 28.4316 14.3511 28.761C15.6865 30.4046 17.0967 31.8416 18.5242 33.0307C18.4729 33.0649 18.4216 33.0987 18.3703 33.1321C15.2223 35.1831 12.5039 35.5901 10.7111 34.5283C8.93367 33.4755 7.98511 30.9311 8.24732 27.2368ZM6.79162 24.6829C7.13073 22.825 7.70781 20.8534 8.51361 18.844C7.70867 16.8361 7.13212 14.866 6.7932 13.0095C3.47913 14.6667 1.77226 16.7802 1.77226 18.8466C1.77226 20.9126 3.47858 23.0258 6.79162 24.6829Z" fill="#98A2B3"/>
<path d="M22.428 21.7262H20.6202V22.9934H19.8582V21.744C19.6632 21.744 19.4594 21.744 19.2467 21.7351V22.9846H18.4847V21.7174C18.3074 21.7174 18.1214 21.7174 17.9441 21.7085H16.9517L17.1023 20.7958C17.1023 20.7958 17.6694 20.8047 17.6517 20.7958C17.8644 20.7958 17.9264 20.6363 17.9353 20.5477V17.1184C17.9087 16.9677 17.8023 16.7816 17.5011 16.7816C17.5099 16.7728 16.9517 16.7816 16.9517 16.7816V15.9664H18.0062C18.1657 15.9664 18.3252 15.9664 18.4935 15.9575V14.7081H19.2556V15.9309C19.4594 15.9309 19.6632 15.9221 19.867 15.9221V14.6992H20.6291V15.9487H22.4457C22.4457 15.9487 22.4457 16.8082 22.4457 16.7639H19.2822V18.3412H21.852V19.1122H19.2822V20.7604H22.295L22.428 21.7262Z" fill="#667085"/>
</svg>
