<svg width="40" height="40" viewBox="0 0 40 40" fill="none" xmlns="http://www.w3.org/2000/svg">
<path d="M39.3996 24.8385C36.7284 35.5529 25.8765 42.0735 15.1609 39.4016C4.4496 36.7304 -2.07102 25.8779 0.601479 15.1641C3.27148 4.4485 14.1234 -2.07275 24.8359 0.598497C35.5509 3.26975 42.0709 14.1235 39.3996 24.8385Z" fill="#98A2B3"/>
<path d="M28.8184 17.1506C29.2165 14.4894 27.1902 13.0588 24.4196 12.1044L25.3184 8.49938L23.124 7.9525L22.249 11.4625C21.6721 11.3188 21.0796 11.1831 20.4909 11.0488L21.3721 7.51563L19.179 6.96875L18.2796 10.5725C17.8021 10.4638 17.3334 10.3563 16.8784 10.2431L16.8809 10.2319L13.8546 9.47625L13.2709 11.82C13.2709 11.82 14.899 12.1931 14.8646 12.2163C15.7534 12.4381 15.914 13.0263 15.8871 13.4925L14.8634 17.5994C14.9246 17.615 15.004 17.6375 15.0915 17.6725C15.0184 17.6544 14.9402 17.6344 14.8596 17.615L13.4246 23.3681C13.3159 23.6381 13.0402 24.0431 12.419 23.8894C12.4409 23.9213 10.824 23.4913 10.824 23.4913L9.73462 26.0031L12.5902 26.715C13.1215 26.8481 13.6421 26.9875 14.1546 27.1188L13.2465 30.765L15.4384 31.3119L16.3377 27.7044C16.9365 27.8669 17.5177 28.0169 18.0865 28.1581L17.1902 31.7488L19.3846 32.2956L20.2927 28.6563C24.0346 29.3644 26.8484 29.0788 28.0327 25.6944C28.9871 22.9694 27.9852 21.3975 26.0165 20.3725C27.4502 20.0419 28.5302 19.0988 28.8184 17.1506ZM23.8046 24.1813C23.1265 26.9063 18.5384 25.4331 17.0509 25.0638L18.2559 20.2331C19.7434 20.6044 24.5134 21.3394 23.8046 24.1813ZM24.4834 17.1113C23.8646 19.59 20.0459 18.3306 18.8071 18.0219L19.8996 13.6406C21.1384 13.9494 25.1277 14.5256 24.4834 17.1113Z" fill="white"/>
</svg>
