<svg width="39" height="39" viewBox="0 0 39 39" fill="none" xmlns="http://www.w3.org/2000/svg">
<path d="M5.25004 28.2498C2.50004 30.5598 1.58337 37.4165 1.58337 37.4165C1.58337 37.4165 8.44004 36.4998 10.75 33.7498C12.0517 32.2098 12.0334 29.8448 10.585 28.4148C9.87244 27.7347 8.93375 27.3416 7.94912 27.3112C6.9645 27.2807 6.00331 27.615 5.25004 28.2498Z" fill="#F7931A" fill-opacity="0.1"/>
<path d="M19 25.4998L13.5 19.9998C14.4756 17.4688 15.7041 15.0426 17.1667 12.7581C19.3029 9.34261 22.2773 6.53039 25.8072 4.58897C29.3371 2.64755 33.3049 1.64148 37.3334 1.66647C37.3334 6.65314 35.9034 15.4165 26.3334 21.8331C24.0177 23.2975 21.5609 24.5258 19 25.4998Z" fill="#F7931A" fill-opacity="0.1"/>
<path d="M13.5 19.9998H4.33337C4.33337 19.9998 5.34171 14.4448 8.00004 12.6665C10.97 10.6865 17.1667 12.6665 17.1667 12.6665" fill="#F7931A" fill-opacity="0.1"/>
<path d="M19 25.4998V34.6665C19 34.6665 24.555 33.6581 26.3334 30.9998C28.3134 28.0298 26.3334 21.8331 26.3334 21.8331" fill="#F7931A" fill-opacity="0.1"/>
<path d="M19 25.4998L13.5 19.9998M19 25.4998C21.5609 24.5258 24.0177 23.2975 26.3334 21.8331M19 25.4998V34.6665C19 34.6665 24.555 33.6581 26.3334 30.9998C28.3134 28.0298 26.3334 21.8331 26.3334 21.8331M13.5 19.9998C14.4756 17.4688 15.7041 15.0426 17.1667 12.7581C19.3029 9.34261 22.2773 6.53039 25.8072 4.58897C29.3371 2.64755 33.3049 1.64148 37.3334 1.66647C37.3334 6.65314 35.9034 15.4165 26.3334 21.8331M13.5 19.9998H4.33337C4.33337 19.9998 5.34171 14.4448 8.00004 12.6665C10.97 10.6865 17.1667 12.6665 17.1667 12.6665M5.25004 28.2498C2.50004 30.5598 1.58337 37.4165 1.58337 37.4165C1.58337 37.4165 8.44004 36.4998 10.75 33.7498C12.0517 32.2098 12.0334 29.8448 10.585 28.4148C9.87244 27.7347 8.93375 27.3416 7.94912 27.3112C6.9645 27.2807 6.00331 27.615 5.25004 28.2498Z" stroke="#F7931A" stroke-width="3" stroke-linecap="round" stroke-linejoin="round"/>
</svg>
