<svg width="40" height="40" viewBox="0 0 40 40" fill="none" xmlns="http://www.w3.org/2000/svg">
<path d="M20 25.5003C23.0375 25.5003 25.5 23.0379 25.5 20.0003C25.5 16.9628 23.0375 14.5003 20 14.5003C16.9624 14.5003 14.5 16.9628 14.5 20.0003C14.5 23.0379 16.9624 25.5003 20 25.5003Z" fill="#F7931A" fill-opacity="0.1"/>
<path d="M32.3333 25.0003C32.1114 25.503 32.0453 26.0606 32.1433 26.6013C32.2413 27.142 32.4991 27.6409 32.8833 28.0337L32.9833 28.1337C33.2932 28.4432 33.5391 28.8109 33.7068 29.2155C33.8746 29.6202 33.9609 30.0539 33.9609 30.492C33.9609 30.93 33.8746 31.3638 33.7068 31.7685C33.5391 32.1731 33.2932 32.5407 32.9833 32.8503C32.6737 33.1602 32.3061 33.4061 31.9014 33.5739C31.4968 33.7416 31.063 33.8279 30.625 33.8279C30.1869 33.8279 29.7532 33.7416 29.3485 33.5739C28.9438 33.4061 28.5762 33.1602 28.2666 32.8503L28.1666 32.7503C27.7738 32.3661 27.2749 32.1083 26.7343 32.0103C26.1936 31.9123 25.636 31.9785 25.1333 32.2003C24.6403 32.4116 24.2199 32.7624 23.9238 33.2096C23.6277 33.6567 23.4688 34.1807 23.4666 34.717V35.0003C23.4666 35.8844 23.1154 36.7322 22.4903 37.3573C21.8652 37.9825 21.0173 38.3337 20.1333 38.3337C19.2492 38.3337 18.4014 37.9825 17.7763 37.3573C17.1511 36.7322 16.8 35.8844 16.8 35.0003V34.8503C16.7871 34.2987 16.6085 33.7636 16.2875 33.3148C15.9665 32.866 15.5179 32.5241 15 32.3337C14.4973 32.1118 13.9396 32.0456 13.399 32.1437C12.8583 32.2417 12.3594 32.4994 11.9666 32.8837L11.8666 32.9837C11.557 33.2936 11.1894 33.5394 10.7848 33.7072C10.3801 33.8749 9.94634 33.9613 9.50829 33.9613C9.07024 33.9613 8.63649 33.8749 8.23182 33.7072C7.82716 33.5394 7.45954 33.2936 7.14996 32.9837C6.84004 32.6741 6.59417 32.3065 6.42643 31.9018C6.25868 31.4971 6.17234 31.0634 6.17234 30.6253C6.17234 30.1873 6.25868 29.7535 6.42643 29.3489C6.59417 28.9442 6.84004 28.5766 7.14996 28.267L7.24996 28.167C7.63419 27.7742 7.89194 27.2753 7.98997 26.7346C8.088 26.194 8.02182 25.6364 7.79996 25.1337C7.58869 24.6407 7.23789 24.2203 6.79073 23.9242C6.34358 23.628 5.8196 23.4691 5.28329 23.467H4.99996C4.1159 23.467 3.26806 23.1158 2.64294 22.4907C2.01782 21.8656 1.66663 21.0177 1.66663 20.1337C1.66663 19.2496 2.01782 18.4018 2.64294 17.7766C3.26806 17.1515 4.1159 16.8003 4.99996 16.8003H5.14996C5.70162 16.7874 6.23663 16.6089 6.68546 16.2878C7.13428 15.9668 7.47615 15.5182 7.66663 15.0003C7.88848 14.4976 7.95466 13.94 7.85663 13.3993C7.7586 12.8587 7.50085 12.3598 7.11663 11.967L7.01663 11.867C6.7067 11.5574 6.46084 11.1898 6.29309 10.7851C6.12535 10.3805 6.039 9.94671 6.039 9.50866C6.039 9.07061 6.12535 8.63685 6.29309 8.23219C6.46084 7.82753 6.7067 7.4599 7.01663 7.15033C7.3262 6.8404 7.69383 6.59454 8.09849 6.42679C8.50315 6.25905 8.93691 6.1727 9.37496 6.1727C9.81301 6.1727 10.2468 6.25905 10.6514 6.42679C11.0561 6.59454 11.4237 6.8404 11.7333 7.15033L11.8333 7.25033C12.2261 7.63455 12.725 7.8923 13.2656 7.99033C13.8063 8.08836 14.3639 8.02218 14.8666 7.80033H15C15.4929 7.58905 15.9133 7.23825 16.2094 6.7911C16.5056 6.34395 16.6645 5.81997 16.6666 5.28366V5.00033C16.6666 4.11627 17.0178 3.26842 17.6429 2.6433C18.2681 2.01818 19.1159 1.66699 20 1.66699C20.884 1.66699 21.7319 2.01818 22.357 2.6433C22.9821 3.26842 23.3333 4.11627 23.3333 5.00033V5.15033C23.3354 5.68664 23.4943 6.21062 23.7905 6.65777C24.0866 7.10492 24.507 7.45572 25 7.66699C25.5027 7.88885 26.0603 7.95503 26.6009 7.857C27.1416 7.75897 27.6405 7.50122 28.0333 7.11699L28.1333 7.01699C28.4429 6.70707 28.8105 6.46121 29.2152 6.29346C29.6198 6.12571 30.0536 6.03937 30.4916 6.03937C30.9297 6.03937 31.3634 6.12571 31.7681 6.29346C32.1728 6.46121 32.5404 6.70707 32.85 7.01699C33.1599 7.32657 33.4057 7.6942 33.5735 8.09886C33.7412 8.50352 33.8276 8.93727 33.8276 9.37533C33.8276 9.81338 33.7412 10.2471 33.5735 10.6518C33.4057 11.0565 33.1599 11.4241 32.85 11.7337L32.75 11.8337C32.3657 12.2265 32.108 12.7254 32.01 13.266C31.9119 13.8067 31.9781 14.3643 32.2 14.867V15.0003C32.4112 15.4933 32.762 15.9137 33.2092 16.2098C33.6563 16.5059 34.1803 16.6649 34.7166 16.667H35C35.884 16.667 36.7319 17.0182 37.357 17.6433C37.9821 18.2684 38.3333 19.1163 38.3333 20.0003C38.3333 20.8844 37.9821 21.7322 37.357 22.3573C36.7319 22.9825 35.884 23.3337 35 23.3337H34.85C34.3136 23.3358 33.7897 23.4947 33.3425 23.7908C32.8954 24.087 32.5446 24.5074 32.3333 25.0003Z" fill="#F7931A" fill-opacity="0.1"/>
<path d="M20 25.5003C23.0375 25.5003 25.5 23.0379 25.5 20.0003C25.5 16.9628 23.0375 14.5003 20 14.5003C16.9624 14.5003 14.5 16.9628 14.5 20.0003C14.5 23.0379 16.9624 25.5003 20 25.5003Z" stroke="#F7931A" stroke-width="3" stroke-linecap="round" stroke-linejoin="round"/>
<path d="M32.3333 25.0003C32.1114 25.503 32.0453 26.0606 32.1433 26.6013C32.2413 27.142 32.4991 27.6409 32.8833 28.0337L32.9833 28.1337C33.2932 28.4432 33.5391 28.8109 33.7068 29.2155C33.8746 29.6202 33.9609 30.0539 33.9609 30.492C33.9609 30.93 33.8746 31.3638 33.7068 31.7685C33.5391 32.1731 33.2932 32.5407 32.9833 32.8503C32.6737 33.1602 32.3061 33.4061 31.9014 33.5739C31.4968 33.7416 31.063 33.8279 30.625 33.8279C30.1869 33.8279 29.7532 33.7416 29.3485 33.5739C28.9438 33.4061 28.5762 33.1602 28.2666 32.8503L28.1666 32.7503C27.7738 32.3661 27.2749 32.1083 26.7343 32.0103C26.1936 31.9123 25.636 31.9785 25.1333 32.2003C24.6403 32.4116 24.2199 32.7624 23.9238 33.2096C23.6277 33.6567 23.4688 34.1807 23.4666 34.717V35.0003C23.4666 35.8844 23.1154 36.7322 22.4903 37.3573C21.8652 37.9825 21.0173 38.3337 20.1333 38.3337C19.2492 38.3337 18.4014 37.9825 17.7763 37.3573C17.1511 36.7322 16.8 35.8844 16.8 35.0003V34.8503C16.7871 34.2987 16.6085 33.7636 16.2875 33.3148C15.9665 32.866 15.5179 32.5241 15 32.3337C14.4973 32.1118 13.9396 32.0456 13.399 32.1437C12.8583 32.2417 12.3594 32.4994 11.9666 32.8837L11.8666 32.9837C11.557 33.2936 11.1894 33.5394 10.7848 33.7072C10.3801 33.8749 9.94634 33.9613 9.50829 33.9613C9.07024 33.9613 8.63649 33.8749 8.23182 33.7072C7.82716 33.5394 7.45954 33.2936 7.14996 32.9837C6.84004 32.6741 6.59417 32.3065 6.42643 31.9018C6.25868 31.4971 6.17234 31.0634 6.17234 30.6253C6.17234 30.1873 6.25868 29.7535 6.42643 29.3489C6.59417 28.9442 6.84004 28.5766 7.14996 28.267L7.24996 28.167C7.63419 27.7742 7.89194 27.2753 7.98997 26.7346C8.088 26.194 8.02182 25.6364 7.79996 25.1337C7.58869 24.6407 7.23789 24.2203 6.79073 23.9242C6.34358 23.628 5.8196 23.4691 5.28329 23.467H4.99996C4.1159 23.467 3.26806 23.1158 2.64294 22.4907C2.01782 21.8656 1.66663 21.0177 1.66663 20.1337C1.66663 19.2496 2.01782 18.4018 2.64294 17.7766C3.26806 17.1515 4.1159 16.8003 4.99996 16.8003H5.14996C5.70162 16.7874 6.23663 16.6089 6.68546 16.2878C7.13428 15.9668 7.47615 15.5182 7.66663 15.0003C7.88848 14.4976 7.95466 13.94 7.85663 13.3993C7.7586 12.8587 7.50085 12.3598 7.11663 11.967L7.01663 11.867C6.7067 11.5574 6.46084 11.1898 6.29309 10.7851C6.12535 10.3805 6.039 9.94671 6.039 9.50866C6.039 9.07061 6.12535 8.63685 6.29309 8.23219C6.46084 7.82753 6.7067 7.4599 7.01663 7.15033C7.3262 6.8404 7.69383 6.59454 8.09849 6.42679C8.50315 6.25905 8.93691 6.1727 9.37496 6.1727C9.81301 6.1727 10.2468 6.25905 10.6514 6.42679C11.0561 6.59454 11.4237 6.8404 11.7333 7.15033L11.8333 7.25033C12.2261 7.63455 12.725 7.8923 13.2656 7.99033C13.8063 8.08836 14.3639 8.02218 14.8666 7.80033H15C15.4929 7.58905 15.9133 7.23825 16.2094 6.7911C16.5056 6.34395 16.6645 5.81997 16.6666 5.28366V5.00033C16.6666 4.11627 17.0178 3.26842 17.6429 2.6433C18.2681 2.01818 19.1159 1.66699 20 1.66699C20.884 1.66699 21.7319 2.01818 22.357 2.6433C22.9821 3.26842 23.3333 4.11627 23.3333 5.00033V5.15033C23.3354 5.68664 23.4943 6.21062 23.7905 6.65777C24.0866 7.10492 24.507 7.45572 25 7.66699C25.5027 7.88885 26.0603 7.95503 26.6009 7.857C27.1416 7.75897 27.6405 7.50122 28.0333 7.11699L28.1333 7.01699C28.4429 6.70707 28.8105 6.46121 29.2152 6.29346C29.6198 6.12571 30.0536 6.03937 30.4916 6.03937C30.9297 6.03937 31.3634 6.12571 31.7681 6.29346C32.1728 6.46121 32.5404 6.70707 32.85 7.01699C33.1599 7.32657 33.4057 7.6942 33.5735 8.09886C33.7412 8.50352 33.8276 8.93727 33.8276 9.37533C33.8276 9.81338 33.7412 10.2471 33.5735 10.6518C33.4057 11.0565 33.1599 11.4241 32.85 11.7337L32.75 11.8337C32.3657 12.2265 32.108 12.7254 32.01 13.266C31.9119 13.8067 31.9781 14.3643 32.2 14.867V15.0003C32.4112 15.4933 32.762 15.9137 33.2092 16.2098C33.6563 16.5059 34.1803 16.6649 34.7166 16.667H35C35.884 16.667 36.7319 17.0182 37.357 17.6433C37.9821 18.2684 38.3333 19.1163 38.3333 20.0003C38.3333 20.8844 37.9821 21.7322 37.357 22.3573C36.7319 22.9825 35.884 23.3337 35 23.3337H34.85C34.3136 23.3358 33.7897 23.4947 33.3425 23.7908C32.8954 24.087 32.5446 24.5074 32.3333 25.0003Z" stroke="#F7931A" stroke-width="3" stroke-linecap="round" stroke-linejoin="round"/>
</svg>
