<svg width="40" height="36" viewBox="0 0 40 36" fill="none" xmlns="http://www.w3.org/2000/svg">
<path d="M1.66663 14.7C1.66663 12.6465 1.66663 11.6197 2.06627 10.8354C2.4178 10.1454 2.97873 9.58451 3.66866 9.23298C4.453 8.83333 5.47977 8.83333 7.53329 8.83333H32.4666C34.5202 8.83333 35.5469 8.83333 36.3313 9.23298C37.0212 9.58451 37.5821 10.1454 37.9337 10.8354C38.3333 11.6197 38.3333 12.6465 38.3333 14.7V28.6333C38.3333 30.6869 38.3333 31.7136 37.9337 32.498C37.5821 33.1879 37.0212 33.7488 36.3313 34.1004C35.5469 34.5 34.5202 34.5 32.4666 34.5H7.53329C5.47977 34.5 4.453 34.5 3.66866 34.1004C2.97873 33.7488 2.4178 33.1879 2.06627 32.498C1.66663 31.7136 1.66663 30.6869 1.66663 28.6333V14.7Z" fill="#F7931A" fill-opacity="0.1"/>
<path d="M12.6666 34.5V8.83333C12.6666 7.12839 12.6666 6.27591 12.854 5.5765C13.3626 3.67849 14.8451 2.19598 16.7431 1.68741C17.4425 1.5 18.295 1.5 20 1.5C21.7049 1.5 22.5574 1.5 23.2568 1.68741C25.1548 2.19598 26.6373 3.67849 27.1459 5.5765C27.3333 6.27591 27.3333 7.12839 27.3333 8.83333V34.5M7.53329 34.5H32.4666C34.5202 34.5 35.5469 34.5 36.3313 34.1004C37.0212 33.7488 37.5821 33.1879 37.9337 32.498C38.3333 31.7136 38.3333 30.6869 38.3333 28.6333V14.7C38.3333 12.6465 38.3333 11.6197 37.9337 10.8354C37.5821 10.1454 37.0212 9.58451 36.3313 9.23298C35.5469 8.83333 34.5202 8.83333 32.4666 8.83333H7.53329C5.47977 8.83333 4.453 8.83333 3.66866 9.23298C2.97873 9.58451 2.4178 10.1454 2.06627 10.8354C1.66663 11.6197 1.66663 12.6465 1.66663 14.7V28.6333C1.66663 30.6869 1.66663 31.7136 2.06627 32.498C2.4178 33.1879 2.97873 33.7488 3.66866 34.1004C4.453 34.5 5.47977 34.5 7.53329 34.5Z" stroke="#F7931A" stroke-width="3" stroke-linecap="round" stroke-linejoin="round"/>
</svg>
