<svg width="42" height="42" viewBox="0 0 42 42" fill="none" xmlns="http://www.w3.org/2000/svg">
<g filter="url(#filter0_d_864_3082)">
<path d="M19.7204 37.6289C20.1263 37.8657 20.3292 37.9841 20.6156 38.0455C20.8379 38.0932 21.1622 38.0932 21.3845 38.0455C21.6709 37.9841 21.8738 37.8657 22.2797 37.6289C25.8511 35.5454 35.6667 29.0004 35.6667 20.0016V11.2339C35.6667 9.76813 35.6667 9.03525 35.427 8.40526C35.2152 7.84873 34.8711 7.35214 34.4243 6.95844C33.9186 6.51277 33.2324 6.25544 31.86 5.74077L22.03 2.05454C21.6489 1.91161 21.4583 1.84014 21.2622 1.81181C21.0883 1.78669 20.9117 1.78669 20.7378 1.81181C20.5418 1.84014 20.3512 1.91161 19.9701 2.05454L10.1401 5.74077C8.76767 6.25544 8.08145 6.51277 7.57575 6.95844C7.12901 7.35214 6.78488 7.84873 6.5731 8.40526C6.33337 9.03525 6.33337 9.76813 6.33337 11.2339V20.0016C6.33337 29.0005 16.149 35.5454 19.7204 37.6289Z" fill="#F7931A" fill-opacity="0.1" shape-rendering="crispEdges"/>
<path d="M15.5 19.085L19.1667 22.7516L27.4167 14.5016M35.6667 20.0016C35.6667 29.0004 25.8511 35.5454 22.2797 37.6289C21.8738 37.8657 21.6709 37.9841 21.3845 38.0455C21.1622 38.0932 20.8379 38.0932 20.6156 38.0455C20.3292 37.9841 20.1263 37.8657 19.7204 37.6289C16.149 35.5454 6.33337 29.0004 6.33337 20.0016V11.2339C6.33337 9.76813 6.33337 9.03525 6.5731 8.40526C6.78488 7.84873 7.12901 7.35214 7.57575 6.95844C8.08145 6.51277 8.76767 6.25544 10.1401 5.74077L19.9701 2.05454C20.3512 1.91161 20.5418 1.84014 20.7378 1.81181C20.9117 1.78669 21.0883 1.78669 21.2622 1.81181C21.4583 1.84014 21.6489 1.91161 22.03 2.05454L31.86 5.74077C33.2324 6.25544 33.9186 6.51277 34.4243 6.95844C34.8711 7.35214 35.2152 7.84873 35.427 8.40526C35.6667 9.03525 35.6667 9.76813 35.6667 11.2339V20.0016Z" stroke="#F7931A" stroke-width="3" stroke-linecap="round" stroke-linejoin="round" shape-rendering="crispEdges"/>
</g>
<defs>
<filter id="filter0_d_864_3082" x="0.833008" y="0.292969" width="40.334" height="47.2881" filterUnits="userSpaceOnUse" color-interpolation-filters="sRGB">
<feFlood flood-opacity="0" result="BackgroundImageFix"/>
<feColorMatrix in="SourceAlpha" type="matrix" values="0 0 0 0 0 0 0 0 0 0 0 0 0 0 0 0 0 0 127 0" result="hardAlpha"/>
<feOffset dy="4"/>
<feGaussianBlur stdDeviation="2"/>
<feComposite in2="hardAlpha" operator="out"/>
<feColorMatrix type="matrix" values="0 0 0 0 0 0 0 0 0 0 0 0 0 0 0 0 0 0 0.25 0"/>
<feBlend mode="normal" in2="BackgroundImageFix" result="effect1_dropShadow_864_3082"/>
<feBlend mode="normal" in="SourceGraphic" in2="effect1_dropShadow_864_3082" result="shape"/>
</filter>
</defs>
</svg>
