<svg width="24" height="27" viewBox="0 0 24 27" fill="none" xmlns="http://www.w3.org/2000/svg">
<path d="M21.5 21L14.8571 15M9.14286 15L2.50003 21M2 10L10.1649 15.7154C10.8261 16.1783 11.1567 16.4097 11.5163 16.4993C11.8339 16.5785 12.1661 16.5785 12.4837 16.4993C12.8433 16.4097 13.1739 16.1783 13.8351 15.7154L22 10M6.8 23H17.2C18.8802 23 19.7202 23 20.362 22.673C20.9265 22.3854 21.3854 21.9265 21.673 21.362C22 20.7202 22 19.8802 22 18.2V11.8C22 10.1198 22 9.27976 21.673 8.63803C21.3854 8.07354 20.9265 7.6146 20.362 7.32698C19.7202 7 18.8802 7 17.2 7H6.8C5.11984 7 4.27976 7 3.63803 7.32698C3.07354 7.6146 2.6146 8.07354 2.32698 8.63803C2 9.27976 2 10.1198 2 11.8V18.2C2 19.8802 2 20.7202 2.32698 21.362C2.6146 21.9265 3.07354 22.3854 3.63803 22.673C4.27976 23 5.11984 23 6.8 23Z" stroke="#D0D5DD" stroke-width="2" stroke-linecap="round" stroke-linejoin="round"/>
</svg>
