<svg width="40" height="40" viewBox="0 0 40 40" fill="none" xmlns="http://www.w3.org/2000/svg">
<path d="M19.9998 25.5013C23.0374 25.5013 25.4998 23.0389 25.4998 20.0013C25.4998 16.9637 23.0374 14.5013 19.9998 14.5013C16.9623 14.5013 14.4998 16.9637 14.4998 20.0013C14.4998 23.0389 16.9623 25.5013 19.9998 25.5013Z" fill="#F7931A" fill-opacity="0.1"/>
<path d="M32.3332 25.0013C32.1113 25.504 32.0451 26.0616 32.1432 26.6023C32.2412 27.1429 32.4989 27.6418 32.8832 28.0346L32.9832 28.1346C33.2931 28.4442 33.539 28.8118 33.7067 29.2165C33.8745 29.6212 33.9608 30.0549 33.9608 30.493C33.9608 30.931 33.8745 31.3648 33.7067 31.7694C33.539 32.1741 33.2931 32.5417 32.9832 32.8513C32.6736 33.1612 32.306 33.4071 31.9013 33.5748C31.4966 33.7426 31.0629 33.8289 30.6248 33.8289C30.1868 33.8289 29.753 33.7426 29.3484 33.5748C28.9437 33.4071 28.5761 33.1612 28.2665 32.8513L28.1665 32.7513C27.7737 32.3671 27.2748 32.1093 26.7342 32.0113C26.1935 31.9133 25.6359 31.9794 25.1332 32.2013C24.6402 32.4126 24.2198 32.7634 23.9237 33.2105C23.6276 33.6577 23.4686 34.1817 23.4665 34.718V35.0013C23.4665 35.8854 23.1153 36.7332 22.4902 37.3583C21.8651 37.9834 21.0172 38.3346 20.1332 38.3346C19.2491 38.3346 18.4013 37.9834 17.7761 37.3583C17.151 36.7332 16.7998 35.8854 16.7998 35.0013V34.8513C16.7869 34.2996 16.6084 33.7646 16.2874 33.3158C15.9663 32.867 15.5177 32.5251 14.9998 32.3346C14.4971 32.1128 13.9395 32.0466 13.3989 32.1446C12.8582 32.2427 12.3593 32.5004 11.9665 32.8846L11.8665 32.9846C11.5569 33.2946 11.1893 33.5404 10.7846 33.7082C10.38 33.8759 9.94622 33.9623 9.50817 33.9623C9.07012 33.9623 8.63636 33.8759 8.2317 33.7082C7.82704 33.5404 7.45941 33.2946 7.14984 32.9846C6.83992 32.6751 6.59405 32.3074 6.4263 31.9028C6.25856 31.4981 6.17221 31.0644 6.17221 30.6263C6.17221 30.1882 6.25856 29.7545 6.4263 29.3498C6.59405 28.9452 6.83992 28.5775 7.14984 28.268L7.24984 28.168C7.63406 27.7752 7.89181 27.2763 7.98984 26.7356C8.08788 26.195 8.0217 25.6373 7.79984 25.1346C7.58857 24.6417 7.23776 24.2213 6.79061 23.9251C6.34346 23.629 5.81948 23.4701 5.28317 23.468H4.99984C4.11578 23.468 3.26794 23.1168 2.64281 22.4917C2.01769 21.8665 1.6665 21.0187 1.6665 20.1346C1.6665 19.2506 2.01769 18.4027 2.64281 17.7776C3.26794 17.1525 4.11578 16.8013 4.99984 16.8013H5.14984C5.70149 16.7884 6.23651 16.6098 6.68534 16.2888C7.13416 15.9678 7.47603 15.5192 7.6665 15.0013C7.88836 14.4986 7.95454 13.941 7.85651 13.4003C7.75848 12.8597 7.50073 12.3608 7.1165 11.968L7.0165 11.868C6.70658 11.5584 6.46072 11.1908 6.29297 10.7861C6.12522 10.3814 6.03888 9.94769 6.03888 9.50963C6.03888 9.07158 6.12522 8.63783 6.29297 8.23317C6.46072 7.82851 6.70658 7.46088 7.0165 7.1513C7.32608 6.84138 7.69371 6.59552 8.09837 6.42777C8.50303 6.26002 8.93679 6.17368 9.37484 6.17368C9.81289 6.17368 10.2466 6.26002 10.6513 6.42777C11.056 6.59552 11.4236 6.84138 11.7332 7.1513L11.8332 7.2513C12.226 7.63553 12.7249 7.89328 13.2655 7.99131C13.8062 8.08934 14.3638 8.02316 14.8665 7.8013H14.9998C15.4928 7.59003 15.9132 7.23923 16.2093 6.79208C16.5055 6.34493 16.6644 5.82095 16.6665 5.28464V5.0013C16.6665 4.11725 17.0177 3.2694 17.6428 2.64428C18.2679 2.01916 19.1158 1.66797 19.9998 1.66797C20.8839 1.66797 21.7317 2.01916 22.3569 2.64428C22.982 3.2694 23.3332 4.11725 23.3332 5.0013V5.1513C23.3353 5.68761 23.4942 6.21159 23.7903 6.65874C24.0865 7.1059 24.5069 7.4567 24.9998 7.66797C25.5025 7.88983 26.0602 7.95601 26.6008 7.85798C27.1415 7.75994 27.6404 7.5022 28.0332 7.11797L28.1332 7.01797C28.4427 6.70805 28.8104 6.46218 29.215 6.29444C29.6197 6.12669 30.0535 6.04035 30.4915 6.04035C30.9296 6.04035 31.3633 6.12669 31.768 6.29444C32.1726 6.46218 32.5403 6.70805 32.8498 7.01797C33.1598 7.32755 33.4056 7.69517 33.5734 8.09983C33.7411 8.50449 33.8275 8.93825 33.8275 9.3763C33.8275 9.81435 33.7411 10.2481 33.5734 10.6528C33.4056 11.0574 33.1598 11.4251 32.8498 11.7346L32.7498 11.8346C32.3656 12.2274 32.1079 12.7263 32.0098 13.267C31.9118 13.8076 31.978 14.3653 32.1998 14.868V15.0013C32.4111 15.4943 32.7619 15.9147 33.2091 16.2108C33.6562 16.5069 34.1802 16.6658 34.7165 16.668H34.9998C35.8839 16.668 36.7317 17.0192 37.3569 17.6443C37.982 18.2694 38.3332 19.1172 38.3332 20.0013C38.3332 20.8854 37.982 21.7332 37.3569 22.3583C36.7317 22.9834 35.8839 23.3346 34.9998 23.3346H34.8498C34.3135 23.3368 33.7895 23.4957 33.3424 23.7918C32.8952 24.0879 32.5444 24.5084 32.3332 25.0013Z" fill="#F7931A" fill-opacity="0.1"/>
<path d="M19.9998 25.5013C23.0374 25.5013 25.4998 23.0389 25.4998 20.0013C25.4998 16.9637 23.0374 14.5013 19.9998 14.5013C16.9623 14.5013 14.4998 16.9637 14.4998 20.0013C14.4998 23.0389 16.9623 25.5013 19.9998 25.5013Z" stroke="#F7931A" stroke-width="3" stroke-linecap="round" stroke-linejoin="round"/>
<path d="M32.3332 25.0013C32.1113 25.504 32.0451 26.0616 32.1432 26.6023C32.2412 27.1429 32.4989 27.6418 32.8832 28.0346L32.9832 28.1346C33.2931 28.4442 33.539 28.8118 33.7067 29.2165C33.8745 29.6212 33.9608 30.0549 33.9608 30.493C33.9608 30.931 33.8745 31.3648 33.7067 31.7694C33.539 32.1741 33.2931 32.5417 32.9832 32.8513C32.6736 33.1612 32.306 33.4071 31.9013 33.5748C31.4966 33.7426 31.0629 33.8289 30.6248 33.8289C30.1868 33.8289 29.753 33.7426 29.3484 33.5748C28.9437 33.4071 28.5761 33.1612 28.2665 32.8513L28.1665 32.7513C27.7737 32.3671 27.2748 32.1093 26.7342 32.0113C26.1935 31.9133 25.6359 31.9794 25.1332 32.2013C24.6402 32.4126 24.2198 32.7634 23.9237 33.2105C23.6276 33.6577 23.4686 34.1817 23.4665 34.718V35.0013C23.4665 35.8854 23.1153 36.7332 22.4902 37.3583C21.8651 37.9834 21.0172 38.3346 20.1332 38.3346C19.2491 38.3346 18.4013 37.9834 17.7761 37.3583C17.151 36.7332 16.7998 35.8854 16.7998 35.0013V34.8513C16.7869 34.2996 16.6084 33.7646 16.2874 33.3158C15.9663 32.867 15.5177 32.5251 14.9998 32.3346C14.4971 32.1128 13.9395 32.0466 13.3989 32.1446C12.8582 32.2427 12.3593 32.5004 11.9665 32.8846L11.8665 32.9846C11.5569 33.2946 11.1893 33.5404 10.7846 33.7082C10.38 33.8759 9.94622 33.9623 9.50817 33.9623C9.07012 33.9623 8.63636 33.8759 8.2317 33.7082C7.82704 33.5404 7.45941 33.2946 7.14984 32.9846C6.83992 32.6751 6.59405 32.3074 6.4263 31.9028C6.25856 31.4981 6.17221 31.0644 6.17221 30.6263C6.17221 30.1882 6.25856 29.7545 6.4263 29.3498C6.59405 28.9452 6.83992 28.5775 7.14984 28.268L7.24984 28.168C7.63406 27.7752 7.89181 27.2763 7.98984 26.7356C8.08788 26.195 8.0217 25.6373 7.79984 25.1346C7.58857 24.6417 7.23776 24.2213 6.79061 23.9251C6.34346 23.629 5.81948 23.4701 5.28317 23.468H4.99984C4.11578 23.468 3.26794 23.1168 2.64281 22.4917C2.01769 21.8665 1.6665 21.0187 1.6665 20.1346C1.6665 19.2506 2.01769 18.4027 2.64281 17.7776C3.26794 17.1525 4.11578 16.8013 4.99984 16.8013H5.14984C5.70149 16.7884 6.23651 16.6098 6.68534 16.2888C7.13416 15.9678 7.47603 15.5192 7.6665 15.0013C7.88836 14.4986 7.95454 13.941 7.85651 13.4003C7.75848 12.8597 7.50073 12.3608 7.1165 11.968L7.0165 11.868C6.70658 11.5584 6.46072 11.1908 6.29297 10.7861C6.12522 10.3814 6.03888 9.94769 6.03888 9.50963C6.03888 9.07158 6.12522 8.63783 6.29297 8.23317C6.46072 7.82851 6.70658 7.46088 7.0165 7.1513C7.32608 6.84138 7.69371 6.59552 8.09837 6.42777C8.50303 6.26002 8.93679 6.17368 9.37484 6.17368C9.81289 6.17368 10.2466 6.26002 10.6513 6.42777C11.056 6.59552 11.4236 6.84138 11.7332 7.1513L11.8332 7.2513C12.226 7.63553 12.7249 7.89328 13.2655 7.99131C13.8062 8.08934 14.3638 8.02316 14.8665 7.8013H14.9998C15.4928 7.59003 15.9132 7.23923 16.2093 6.79208C16.5055 6.34493 16.6644 5.82095 16.6665 5.28464V5.0013C16.6665 4.11725 17.0177 3.2694 17.6428 2.64428C18.2679 2.01916 19.1158 1.66797 19.9998 1.66797C20.8839 1.66797 21.7317 2.01916 22.3569 2.64428C22.982 3.2694 23.3332 4.11725 23.3332 5.0013V5.1513C23.3353 5.68761 23.4942 6.21159 23.7903 6.65874C24.0865 7.1059 24.5069 7.4567 24.9998 7.66797C25.5025 7.88983 26.0602 7.95601 26.6008 7.85798C27.1415 7.75994 27.6404 7.5022 28.0332 7.11797L28.1332 7.01797C28.4427 6.70805 28.8104 6.46218 29.215 6.29444C29.6197 6.12669 30.0535 6.04035 30.4915 6.04035C30.9296 6.04035 31.3633 6.12669 31.768 6.29444C32.1726 6.46218 32.5403 6.70805 32.8498 7.01797C33.1598 7.32755 33.4056 7.69517 33.5734 8.09983C33.7411 8.50449 33.8275 8.93825 33.8275 9.3763C33.8275 9.81435 33.7411 10.2481 33.5734 10.6528C33.4056 11.0574 33.1598 11.4251 32.8498 11.7346L32.7498 11.8346C32.3656 12.2274 32.1079 12.7263 32.0098 13.267C31.9118 13.8076 31.978 14.3653 32.1998 14.868V15.0013C32.4111 15.4943 32.7619 15.9147 33.2091 16.2108C33.6562 16.5069 34.1802 16.6658 34.7165 16.668H34.9998C35.8839 16.668 36.7317 17.0192 37.3569 17.6443C37.982 18.2694 38.3332 19.1172 38.3332 20.0013C38.3332 20.8854 37.982 21.7332 37.3569 22.3583C36.7317 22.9834 35.8839 23.3346 34.9998 23.3346H34.8498C34.3135 23.3368 33.7895 23.4957 33.3424 23.7918C32.8952 24.0879 32.5444 24.5084 32.3332 25.0013Z" stroke="#F7931A" stroke-width="3" stroke-linecap="round" stroke-linejoin="round"/>
</svg>
