<svg width="36" height="37" viewBox="0 0 36 37" fill="none" xmlns="http://www.w3.org/2000/svg">
<path d="M28.6333 35.5009C30.6869 35.5009 31.7136 35.5009 32.498 35.1013C33.1879 34.7497 33.7488 34.1888 34.1004 33.4989C34.5 32.7145 34.5 31.6878 34.5 29.6342V17.5342C34.5 15.4807 34.5 14.454 34.1004 13.6696C33.7488 12.9797 33.1879 12.4188 32.498 12.0672C31.7136 11.6676 30.6869 11.6676 28.6333 11.6676L7.36667 11.6676C5.31314 11.6676 4.28638 11.6676 3.50204 12.0672C2.81211 12.4187 2.25118 12.9797 1.89964 13.6696C1.5 14.4539 1.5 15.4807 1.5 17.5342L1.5 29.6342C1.5 31.6878 1.5 32.7145 1.89964 33.4989C2.25118 34.1888 2.81211 34.7497 3.50203 35.1013C4.28638 35.5009 5.31314 35.5009 7.36667 35.5009H28.6333Z" fill="#F7931A" fill-opacity="0.1"/>
<path d="M27.1667 23.5842C27.1667 24.0905 26.7563 24.5009 26.25 24.5009C25.7437 24.5009 25.3333 24.0905 25.3333 23.5842C25.3333 23.078 25.7437 22.6676 26.25 22.6676C26.7563 22.6676 27.1667 23.078 27.1667 23.5842Z" fill="#F7931A" fill-opacity="0.1"/>
<path d="M25.3333 11.6676V5.25211C25.3333 3.72725 25.3333 2.96482 25.0121 2.49627C24.7315 2.0869 24.2968 1.80882 23.8076 1.72555C23.2475 1.63025 22.5553 1.94976 21.1708 2.58876L4.90819 10.0946C3.67343 10.6644 3.05604 10.9494 2.60386 11.3913C2.20411 11.782 1.89896 12.2589 1.71176 12.7856C1.5 13.3814 1.5 14.0613 1.5 15.4213V24.5009M26.25 23.5842H26.2683M1.5 17.5342L1.5 29.6342C1.5 31.6878 1.5 32.7145 1.89964 33.4989C2.25118 34.1888 2.81211 34.7497 3.50203 35.1013C4.28638 35.5009 5.31314 35.5009 7.36667 35.5009H28.6333C30.6869 35.5009 31.7136 35.5009 32.498 35.1013C33.1879 34.7497 33.7488 34.1888 34.1004 33.4989C34.5 32.7145 34.5 31.6878 34.5 29.6342V17.5342C34.5 15.4807 34.5 14.454 34.1004 13.6696C33.7488 12.9797 33.1879 12.4188 32.498 12.0672C31.7136 11.6676 30.6869 11.6676 28.6333 11.6676L7.36667 11.6676C5.31314 11.6676 4.28638 11.6676 3.50204 12.0672C2.81211 12.4187 2.25118 12.9797 1.89964 13.6696C1.5 14.4539 1.5 15.4807 1.5 17.5342ZM27.1667 23.5842C27.1667 24.0905 26.7563 24.5009 26.25 24.5009C25.7437 24.5009 25.3333 24.0905 25.3333 23.5842C25.3333 23.078 25.7437 22.6676 26.25 22.6676C26.7563 22.6676 27.1667 23.078 27.1667 23.5842Z" stroke="#F7931A" stroke-width="3" stroke-linecap="round" stroke-linejoin="round"/>
</svg>
