<svg width="40" height="40" viewBox="0 0 40 40" fill="none" xmlns="http://www.w3.org/2000/svg">
<path d="M3.43846 14.7168L1.60966 16.5472C-0.48154 18.5344 -0.53274 21.8272 1.45286 23.9184C1.50566 23.9712 1.55686 24.0224 1.60966 24.0752L16.2993 38.9216C16.6657 39.288 17.0305 39.6016 17.5009 39.8096V21.7744L3.43846 14.7168Z" fill="#98A2B3"/>
<path d="M36.5809 14.7168L38.4113 16.5472C40.4497 18.5344 40.5537 21.8272 38.5681 23.9184C38.5153 23.9712 38.4641 24.0224 38.4113 24.0752L23.6689 38.8688C23.3025 39.2352 22.9377 39.5488 22.4673 39.7584V21.7744L36.5809 14.7168Z" fill="#667085"/>
<path d="M33.0257 10.9536L23.8257 1.75358C21.7873 -0.284821 18.4929 -0.337621 16.4545 1.64958C16.4017 1.70238 16.3505 1.70238 16.3505 1.75358L7.09766 10.9536L20.0097 17.384L33.0257 10.9536Z" fill="#D0D5DD"/>
</svg>
