<svg width="40" height="40" viewBox="0 0 40 40" fill="none" xmlns="http://www.w3.org/2000/svg">
<path d="M30.9411 4H16.1756V23.7517H35.9921V9.13898C36.0001 6.36441 33.7248 4 30.9411 4ZM11.6411 4H9.16401C6.38035 4 4.00012 6.25986 4.00012 9.14702V11.616H11.6411V4ZM4.00012 16.2403H11.6411V23.8562H4.00012V16.2403ZM28.3592 35.992H30.8362C33.6199 35.992 36.0001 33.7321 36.0001 30.8449V28.384H28.3592V35.992ZM16.1756 28.384H23.8166V36H16.1756V28.384ZM4.00012 28.384V30.853C4.00012 33.6275 6.26739 36 9.16401 36H11.6411V28.384H4.00012Z" fill="#98A2B3"/>
</svg>
