<svg width="120" height="30" viewBox="0 0 120 30" fill="none" xmlns="http://www.w3.org/2000/svg">
<g clip-path="url(#clip0_26_679)">
<path d="M31.536 10.9453H43.6864V13.2123H38.9089V25.9559H36.2817V13.2123H31.5254V10.9453H31.536ZM43.1673 15.0873H45.4131V17.1847H45.4555C45.5296 16.8881 45.6673 16.6021 45.8686 16.3267C46.0699 16.0512 46.3135 15.7864 46.5995 15.564C46.8856 15.3309 47.2034 15.1508 47.5529 15.0025C47.9025 14.8648 48.2627 14.7907 48.6228 14.7907C48.8983 14.7907 49.0995 14.8012 49.2055 14.8118C49.3114 14.8224 49.4173 14.8436 49.5339 14.8542V17.1635C49.3644 17.1318 49.1949 17.1106 49.0148 17.0894C48.8347 17.0682 48.6652 17.0576 48.4957 17.0576C48.0932 17.0576 47.7118 17.1423 47.3517 17.3012C46.9915 17.4601 46.6843 17.7038 46.4195 18.011C46.1546 18.3288 45.9428 18.7101 45.7839 19.1762C45.625 19.6423 45.5508 20.172 45.5508 20.7758V25.9453H43.1567V15.0873H43.1673ZM60.5402 25.9559H58.1885V24.4411H58.1462C57.8495 24.9919 57.4152 25.4262 56.8326 25.7546C56.25 26.083 55.6567 26.2525 55.0529 26.2525C53.6228 26.2525 52.5847 25.9029 51.9491 25.1932C51.3135 24.4834 50.9957 23.4135 50.9957 21.9834V15.0873H53.3898V21.7504C53.3898 22.7038 53.5699 23.3818 53.9406 23.7737C54.3008 24.1657 54.8199 24.3669 55.4767 24.3669C55.9851 24.3669 56.3983 24.2928 56.7372 24.1339C57.0762 23.975 57.3517 23.7737 57.5529 23.5089C57.7648 23.2546 57.9131 22.9368 58.0084 22.5767C58.1038 22.2165 58.1462 21.8245 58.1462 21.4008V15.0979H60.5402V25.9559ZM64.6186 22.4707C64.6928 23.1699 64.9576 23.6572 65.4131 23.9432C65.8792 24.2186 66.43 24.3669 67.0762 24.3669C67.2987 24.3669 67.5529 24.3457 67.8389 24.314C68.125 24.2822 68.4004 24.208 68.644 24.1127C68.8983 24.0173 69.0995 23.869 69.269 23.6784C69.4279 23.4877 69.5021 23.244 69.4915 22.9368C69.4809 22.6296 69.3644 22.3754 69.1525 22.1847C68.9406 21.9834 68.6758 21.8351 68.3474 21.708C68.019 21.5915 67.6483 21.4856 67.2245 21.4008C66.8008 21.3161 66.3771 21.2207 65.9428 21.1254C65.4978 21.0301 65.0635 20.9029 64.6504 20.7652C64.2372 20.6275 63.8665 20.4368 63.5381 20.1932C63.2097 19.9601 62.9449 19.6529 62.7542 19.2822C62.5529 18.9114 62.4576 18.4559 62.4576 17.9051C62.4576 17.3118 62.6059 16.8246 62.8919 16.422C63.1779 16.0195 63.5487 15.7017 63.983 15.458C64.4279 15.2144 64.9152 15.0449 65.4555 14.939C65.9957 14.8436 66.5148 14.7907 67.0021 14.7907C67.5635 14.7907 68.1038 14.8542 68.6123 14.9707C69.1207 15.0873 69.5868 15.2779 70 15.5534C70.4131 15.8182 70.7521 16.1678 71.0275 16.5915C71.3029 17.0152 71.4724 17.5343 71.5466 18.1381H69.0466C68.93 17.5661 68.6758 17.1741 68.2627 16.9834C67.8495 16.7822 67.3728 16.6868 66.8432 16.6868C66.6737 16.6868 66.4724 16.6974 66.2394 16.7292C66.0063 16.761 65.7945 16.814 65.5826 16.8881C65.3813 16.9623 65.2118 17.0788 65.0635 17.2271C64.9258 17.3754 64.8517 17.5661 64.8517 17.8097C64.8517 18.1063 64.9576 18.3394 65.1589 18.5195C65.3601 18.6996 65.625 18.8479 65.9534 18.975C66.2817 19.0915 66.6525 19.1974 67.0762 19.2822C67.5 19.3669 67.9343 19.4623 68.3792 19.5576C68.8135 19.6529 69.2372 19.7801 69.661 19.9178C70.0847 20.0555 70.4555 20.2462 70.7839 20.4898C71.1123 20.7334 71.3771 21.0301 71.5784 21.3902C71.7796 21.7504 71.8856 22.2059 71.8856 22.7356C71.8856 23.3818 71.7373 23.922 71.4406 24.3775C71.144 24.8224 70.7627 25.1932 70.2966 25.4686C69.8305 25.744 69.3008 25.9559 68.7288 26.083C68.1567 26.2101 67.5847 26.2737 67.0233 26.2737C66.3347 26.2737 65.6991 26.1995 65.1165 26.0407C64.5339 25.8818 64.0254 25.6487 63.6017 25.3415C63.1779 25.0237 62.8389 24.6318 62.5953 24.1657C62.3517 23.6995 62.2245 23.1381 62.2034 22.4919H64.6186V22.4707ZM72.5211 15.0873H74.3326V11.8246H76.7267V15.0873H78.8877V16.8775H76.7267V22.6826C76.7267 22.9368 76.7372 23.1487 76.7584 23.3394C76.7796 23.5195 76.8326 23.6784 76.9067 23.8055C76.9809 23.9326 77.0974 24.0279 77.2563 24.0915C77.4152 24.1551 77.6165 24.1868 77.8919 24.1868C78.0614 24.1868 78.2309 24.1868 78.4004 24.1762C78.5699 24.1657 78.7394 24.1445 78.9089 24.1021V25.9559C78.644 25.9877 78.3792 26.0089 78.1356 26.0407C77.8813 26.0724 77.6271 26.083 77.3622 26.083C76.7267 26.083 76.2182 26.0195 75.8368 25.9029C75.4555 25.7864 75.1483 25.6063 74.9364 25.3733C74.7139 25.1402 74.5762 24.8542 74.4915 24.5046C74.4173 24.1551 74.3644 23.7525 74.3538 23.3076V16.8987H72.5423V15.0873H72.5211ZM80.5826 15.0873H82.8495V16.5597H82.8919C83.2309 15.9241 83.697 15.4792 84.3008 15.2038C84.9046 14.9284 85.5508 14.7907 86.2605 14.7907C87.1186 14.7907 87.8601 14.939 88.4957 15.2462C89.1313 15.5428 89.661 15.9559 90.0847 16.4856C90.5084 17.0152 90.8156 17.6296 91.0275 18.3288C91.2394 19.0279 91.3453 19.7801 91.3453 20.5745C91.3453 21.3055 91.25 22.0152 91.0593 22.6932C90.8686 23.3818 90.5826 23.9856 90.2012 24.5152C89.8199 25.0449 89.3326 25.458 88.7394 25.7758C88.1461 26.0936 87.4576 26.2525 86.6525 26.2525C86.3029 26.2525 85.9533 26.2207 85.6038 26.1572C85.2542 26.0936 84.9152 25.9877 84.5974 25.85C84.2796 25.7123 83.9724 25.5322 83.7076 25.3097C83.4322 25.0873 83.2097 24.833 83.019 24.547H82.9767V29.9707H80.5826V15.0873ZM88.9512 20.5322C88.9512 20.0449 88.8877 19.5682 88.7606 19.1021C88.6334 18.636 88.4428 18.2334 88.1885 17.8733C87.9343 17.5131 87.6165 17.2271 87.2457 17.0152C86.8644 16.8034 86.43 16.6868 85.9428 16.6868C84.9364 16.6868 84.1737 17.0364 83.6652 17.7356C83.1567 18.4347 82.9025 19.3669 82.9025 20.5322C82.9025 21.083 82.9661 21.5915 83.1038 22.0576C83.2415 22.5237 83.4322 22.9262 83.7076 23.2652C83.9724 23.6042 84.2902 23.869 84.661 24.0597C85.0317 24.261 85.4661 24.3563 85.9534 24.3563C86.5042 24.3563 86.9597 24.2398 87.3411 24.0173C87.7224 23.7949 88.0296 23.4983 88.2733 23.1487C88.5169 22.7885 88.697 22.386 88.8029 21.9305C88.8983 21.475 88.9512 21.0089 88.9512 20.5322ZM93.1779 10.9453H95.572V13.2123H93.1779V10.9453ZM93.1779 15.0873H95.572V25.9559H93.1779V15.0873ZM97.7118 10.9453H100.106V25.9559H97.7118V10.9453ZM107.447 26.2525C106.578 26.2525 105.805 26.1042 105.127 25.8182C104.449 25.5322 103.877 25.1296 103.4 24.6318C102.934 24.1233 102.574 23.5195 102.33 22.8203C102.087 22.1212 101.96 21.3479 101.96 20.511C101.96 19.6847 102.087 18.922 102.33 18.2229C102.574 17.5237 102.934 16.9199 103.4 16.4114C103.866 15.9029 104.449 15.511 105.127 15.225C105.805 14.939 106.578 14.7907 107.447 14.7907C108.316 14.7907 109.089 14.939 109.767 15.225C110.445 15.511 111.017 15.9135 111.494 16.4114C111.96 16.9199 112.32 17.5237 112.564 18.2229C112.807 18.922 112.934 19.6847 112.934 20.511C112.934 21.3479 112.807 22.1212 112.564 22.8203C112.32 23.5195 111.96 24.1233 111.494 24.6318C111.028 25.1402 110.445 25.5322 109.767 25.8182C109.089 26.1042 108.316 26.2525 107.447 26.2525ZM107.447 24.3563C107.977 24.3563 108.443 24.2398 108.835 24.0173C109.227 23.7949 109.544 23.4983 109.799 23.1381C110.053 22.7779 110.233 22.3648 110.36 21.9093C110.477 21.4538 110.54 20.9877 110.54 20.511C110.54 20.0449 110.477 19.5894 110.36 19.1233C110.244 18.6572 110.053 18.2546 109.799 17.8945C109.544 17.5343 109.227 17.2483 108.835 17.0258C108.443 16.8034 107.977 16.6868 107.447 16.6868C106.917 16.6868 106.451 16.8034 106.059 17.0258C105.667 17.2483 105.35 17.5449 105.095 17.8945C104.841 18.2546 104.661 18.6572 104.534 19.1233C104.417 19.5894 104.354 20.0449 104.354 20.511C104.354 20.9877 104.417 21.4538 104.534 21.9093C104.65 22.3648 104.841 22.7779 105.095 23.1381C105.35 23.4983 105.667 23.7949 106.059 24.0173C106.451 24.2504 106.917 24.3563 107.447 24.3563ZM113.633 15.0873H115.445V11.8246H117.839V15.0873H120V16.8775H117.839V22.6826C117.839 22.9368 117.85 23.1487 117.871 23.3394C117.892 23.5195 117.945 23.6784 118.019 23.8055C118.093 23.9326 118.21 24.0279 118.369 24.0915C118.528 24.1551 118.729 24.1868 119.004 24.1868C119.174 24.1868 119.343 24.1868 119.513 24.1762C119.682 24.1657 119.852 24.1445 120.021 24.1021V25.9559C119.756 25.9877 119.491 26.0089 119.248 26.0407C118.994 26.0724 118.739 26.083 118.475 26.083C117.839 26.083 117.33 26.0195 116.949 25.9029C116.568 25.7864 116.261 25.6063 116.049 25.3733C115.826 25.1402 115.689 24.8542 115.604 24.5046C115.53 24.1551 115.477 23.7525 115.466 23.3076V16.8987H113.655V15.0873H113.633Z" fill="#1A1E42"/>
<path d="M28.7394 10.9449H17.7648L14.375 0.5L10.9746 10.9449L0 10.9343L8.88771 17.3962L5.48729 27.8305L14.375 21.3792L23.2521 27.8305L19.8623 17.3962L28.7394 10.9449Z" fill="#00B67A"/>
<path d="M20.625 19.7588L19.8623 17.3965L14.375 21.3795L20.625 19.7588Z" fill="#005128"/>
</g>
<defs>
<clipPath id="clip0_26_679">
<rect width="120" height="29.4703" fill="white" transform="translate(0 0.5)"/>
</clipPath>
</defs>
</svg>
