<svg width="26" height="38" viewBox="0 0 26 38" fill="none" xmlns="http://www.w3.org/2000/svg">
<path d="M13.0209 0C7.8387 0 3.64481 4.19389 3.64481 9.37611V12.8902C1.82502 13.2196 0 13.6589 0 14.2289V32.568C0 32.568 0 33.0752 0.569992 33.3158C2.63556 34.1525 10.7619 37.0286 12.6287 37.6874C12.8693 37.7763 12.9372 37.7763 13 37.7763C13.0889 37.7763 13.1307 37.7763 13.3713 37.6874C15.2381 37.0286 23.3854 34.1525 25.4509 33.3158C25.9791 33.0961 26 32.5889 26 32.5889V14.2289C26 13.6589 24.2011 13.1987 22.3761 12.8902V9.37611C22.4023 4.19389 18.1822 0 13.0209 0ZM13.0209 4.4815C16.0748 4.4815 17.9208 6.32743 17.9208 9.38133V12.4352C14.4956 12.1947 11.5724 12.1947 8.12631 12.4352V9.38133C8.12631 6.3222 9.97224 4.4815 13.0209 4.4815ZM13 16.9324C17.2619 16.9324 20.8387 17.2619 20.8387 17.8528V29.2944C20.8387 29.4722 20.8178 29.4932 20.6609 29.5559C20.5093 29.6239 13.3922 32.1915 13.3922 32.1915C13.3922 32.1915 13.1046 32.2804 13.0209 32.2804C12.932 32.2804 12.6496 32.1706 12.6496 32.1706C12.6496 32.1706 5.53258 29.603 5.38093 29.535C5.22928 29.467 5.20314 29.4461 5.20314 29.2735V17.8319C5.1613 17.2409 8.73813 16.9324 13 16.9324Z" fill="#98A2B3"/>
</svg>
