<svg width="138" height="23" viewBox="0 0 138 23" fill="none" xmlns="http://www.w3.org/2000/svg">
<path d="M0.82 22.5V1.5H9.46C11.32 1.5 12.91 1.8 14.23 2.4C15.57 3 16.6 3.86 17.32 4.98C18.04 6.1 18.4 7.43 18.4 8.97C18.4 10.51 18.04 11.84 17.32 12.96C16.6 14.06 15.57 14.91 14.23 15.51C12.91 16.09 11.32 16.38 9.46 16.38H2.98L4.72 14.61V22.5H0.82ZM14.56 22.5L9.25 14.88H13.42L18.76 22.5H14.56ZM4.72 15.03L2.98 13.17H9.28C11 13.17 12.29 12.8 13.15 12.06C14.03 11.32 14.47 10.29 14.47 8.97C14.47 7.63 14.03 6.6 13.15 5.88C12.29 5.16 11 4.8 9.28 4.8H2.98L4.72 2.88V15.03ZM29.9334 22.71C28.1534 22.71 26.5934 22.36 25.2534 21.66C23.9334 20.94 22.9034 19.96 22.1634 18.72C21.4434 17.48 21.0834 16.07 21.0834 14.49C21.0834 12.89 21.4334 11.48 22.1334 10.26C22.8534 9.02 23.8334 8.05 25.0734 7.35C26.3334 6.65 27.7634 6.3 29.3634 6.3C30.9234 6.3 32.3134 6.64 33.5334 7.32C34.7534 8 35.7134 8.96 36.4134 10.2C37.1134 11.44 37.4634 12.9 37.4634 14.58C37.4634 14.74 37.4534 14.92 37.4334 15.12C37.4334 15.32 37.4234 15.51 37.4034 15.69H24.0534V13.2H35.4234L33.9534 13.98C33.9734 13.06 33.7834 12.25 33.3834 11.55C32.9834 10.85 32.4334 10.3 31.7334 9.9C31.0534 9.5 30.2634 9.3 29.3634 9.3C28.4434 9.3 27.6334 9.5 26.9334 9.9C26.2534 10.3 25.7134 10.86 25.3134 11.58C24.9334 12.28 24.7434 13.11 24.7434 14.07V14.67C24.7434 15.63 24.9634 16.48 25.4034 17.22C25.8434 17.96 26.4634 18.53 27.2634 18.93C28.0634 19.33 28.9834 19.53 30.0234 19.53C30.9234 19.53 31.7334 19.39 32.4534 19.11C33.1734 18.83 33.8134 18.39 34.3734 17.79L36.3834 20.1C35.6634 20.94 34.7534 21.59 33.6534 22.05C32.5734 22.49 31.3334 22.71 29.9334 22.71ZM45.7895 22.5L38.8295 1.5H42.8795L49.0895 20.49H47.0795L53.5295 1.5H57.1295L63.3995 20.49H61.4495L67.8095 1.5H71.5295L64.5695 22.5H60.4295L54.6995 5.37H55.7795L49.9595 22.5H45.7895ZM83.0155 22.5V19.26L82.8055 18.57V12.9C82.8055 11.8 82.4755 10.95 81.8155 10.35C81.1555 9.73 80.1555 9.42 78.8155 9.42C77.9155 9.42 77.0255 9.56 76.1455 9.84C75.2855 10.12 74.5555 10.51 73.9555 11.01L72.4855 8.28C73.3455 7.62 74.3655 7.13 75.5455 6.81C76.7455 6.47 77.9855 6.3 79.2655 6.3C81.5855 6.3 83.3755 6.86 84.6355 7.98C85.9155 9.08 86.5555 10.79 86.5555 13.11V22.5H83.0155ZM77.9755 22.71C76.7755 22.71 75.7255 22.51 74.8255 22.11C73.9255 21.69 73.2255 21.12 72.7255 20.4C72.2455 19.66 72.0055 18.83 72.0055 17.91C72.0055 17.01 72.2155 16.2 72.6355 15.48C73.0755 14.76 73.7855 14.19 74.7655 13.77C75.7455 13.35 77.0455 13.14 78.6655 13.14H83.3155V15.63H78.9355C77.6555 15.63 76.7955 15.84 76.3555 16.26C75.9155 16.66 75.6955 17.16 75.6955 17.76C75.6955 18.44 75.9655 18.98 76.5055 19.38C77.0455 19.78 77.7955 19.98 78.7555 19.98C79.6755 19.98 80.4955 19.77 81.2155 19.35C81.9555 18.93 82.4855 18.31 82.8055 17.49L83.4355 19.74C83.0755 20.68 82.4255 21.41 81.4855 21.93C80.5655 22.45 79.3955 22.71 77.9755 22.71ZM91.3682 22.5V0.239999H95.1182V22.5H91.3682ZM100.04 22.5V0.239999H103.79V22.5H100.04ZM116.242 22.71C114.462 22.71 112.902 22.36 111.562 21.66C110.242 20.94 109.212 19.96 108.472 18.72C107.752 17.48 107.392 16.07 107.392 14.49C107.392 12.89 107.742 11.48 108.442 10.26C109.162 9.02 110.142 8.05 111.382 7.35C112.642 6.65 114.072 6.3 115.672 6.3C117.232 6.3 118.622 6.64 119.842 7.32C121.062 8 122.022 8.96 122.722 10.2C123.422 11.44 123.772 12.9 123.772 14.58C123.772 14.74 123.762 14.92 123.742 15.12C123.742 15.32 123.732 15.51 123.712 15.69H110.362V13.2H121.732L120.262 13.98C120.282 13.06 120.092 12.25 119.692 11.55C119.292 10.85 118.742 10.3 118.042 9.9C117.362 9.5 116.572 9.3 115.672 9.3C114.752 9.3 113.942 9.5 113.242 9.9C112.562 10.3 112.022 10.86 111.622 11.58C111.242 12.28 111.052 13.11 111.052 14.07V14.67C111.052 15.63 111.272 16.48 111.712 17.22C112.152 17.96 112.772 18.53 113.572 18.93C114.372 19.33 115.292 19.53 116.332 19.53C117.232 19.53 118.042 19.39 118.762 19.11C119.482 18.83 120.122 18.39 120.682 17.79L122.692 20.1C121.972 20.94 121.062 21.59 119.962 22.05C118.882 22.49 117.642 22.71 116.242 22.71ZM133.404 22.71C131.644 22.71 130.284 22.26 129.324 21.36C128.364 20.44 127.884 19.09 127.884 17.31V2.94H131.634V17.22C131.634 17.98 131.824 18.57 132.204 18.99C132.604 19.41 133.154 19.62 133.854 19.62C134.694 19.62 135.394 19.4 135.954 18.96L137.004 21.63C136.564 21.99 136.024 22.26 135.384 22.44C134.744 22.62 134.084 22.71 133.404 22.71ZM125.244 9.6V6.6H135.924V9.6H125.244Z" fill="#1A1E42"/>
</svg>
