<svg width="177" height="29" viewBox="0 0 177 29" fill="none" xmlns="http://www.w3.org/2000/svg">
<path d="M13.0767 5.19063C13.4183 4.36934 14.5817 4.36934 14.9233 5.19063L16.9395 10.0381C17.0835 10.3843 17.4091 10.6209 17.7829 10.6508L23.0161 11.0704C23.9027 11.1414 24.2623 12.248 23.5867 12.8266L19.5996 16.242C19.3148 16.486 19.1904 16.8688 19.2774 17.2335L20.4956 22.3402C20.702 23.2055 19.7607 23.8893 19.0016 23.4257L14.5213 20.6891C14.2012 20.4936 13.7988 20.4936 13.4787 20.6891L8.9984 23.4257C8.2393 23.8893 7.29805 23.2055 7.50444 22.3402L8.72257 17.2335C8.80958 16.8688 8.68521 16.486 8.40042 16.242L4.41328 12.8266C3.73774 12.248 4.09727 11.1414 4.98392 11.0704L10.2171 10.6508C10.5909 10.6209 10.9165 10.3843 11.0605 10.0381L13.0767 5.19063Z" fill="#F7931A"/>
<path d="M41.0767 5.19063C41.4183 4.36934 42.5817 4.36934 42.9233 5.19063L44.9395 10.0381C45.0835 10.3843 45.4091 10.6209 45.7829 10.6508L51.0161 11.0704C51.9027 11.1414 52.2623 12.248 51.5867 12.8266L47.5996 16.242C47.3148 16.486 47.1904 16.8688 47.2774 17.2335L48.4956 22.3402C48.702 23.2055 47.7607 23.8893 47.0016 23.4257L42.5213 20.6891C42.2012 20.4936 41.7988 20.4936 41.4787 20.6891L36.9984 23.4257C36.2393 23.8893 35.298 23.2055 35.5044 22.3402L36.7226 17.2335C36.8096 16.8688 36.6852 16.486 36.4004 16.242L32.4133 12.8266C31.7377 12.248 32.0973 11.1414 32.9839 11.0704L38.2171 10.6508C38.5909 10.6209 38.9165 10.3843 39.0605 10.0381L41.0767 5.19063Z" fill="#F7931A"/>
<path d="M69.0767 5.19063C69.4183 4.36934 70.5817 4.36934 70.9233 5.19063L72.9395 10.0381C73.0835 10.3843 73.4091 10.6209 73.7829 10.6508L79.0161 11.0704C79.9027 11.1414 80.2623 12.248 79.5867 12.8266L75.5996 16.242C75.3148 16.486 75.1904 16.8688 75.2774 17.2335L76.4956 22.3402C76.702 23.2055 75.7607 23.8893 75.0016 23.4257L70.5213 20.6891C70.2012 20.4936 69.7988 20.4936 69.4787 20.6891L64.9984 23.4257C64.2393 23.8893 63.298 23.2055 63.5044 22.3402L64.7226 17.2335C64.8096 16.8688 64.6852 16.486 64.4004 16.242L60.4133 12.8266C59.7377 12.248 60.0973 11.1414 60.9839 11.0704L66.2171 10.6508C66.5909 10.6209 66.9165 10.3843 67.0605 10.0381L69.0767 5.19063Z" fill="#F7931A"/>
<path d="M97.0767 5.19063C97.4183 4.36934 98.5817 4.36934 98.9233 5.19063L100.939 10.0381C101.083 10.3843 101.409 10.6209 101.783 10.6508L107.016 11.0704C107.903 11.1414 108.262 12.248 107.587 12.8266L103.6 16.242C103.315 16.486 103.19 16.8688 103.277 17.2335L104.496 22.3402C104.702 23.2055 103.761 23.8893 103.002 23.4257L98.5213 20.6891C98.2012 20.4936 97.7988 20.4936 97.4787 20.6891L92.9984 23.4257C92.2393 23.8893 91.298 23.2055 91.5044 22.3402L92.7226 17.2335C92.8096 16.8688 92.6852 16.486 92.4004 16.242L88.4133 12.8266C87.7377 12.248 88.0973 11.1414 88.9839 11.0704L94.2171 10.6508C94.5909 10.6209 94.9165 10.3843 95.0605 10.0381L97.0767 5.19063Z" fill="#F7931A"/>
<path d="M125.077 5.19063C125.418 4.36934 126.582 4.36934 126.923 5.19063L128.939 10.0381C129.083 10.3843 129.409 10.6209 129.783 10.6508L135.016 11.0704C135.903 11.1414 136.262 12.248 135.587 12.8266L131.6 16.242C131.315 16.486 131.19 16.8688 131.277 17.2335L132.496 22.3402C132.702 23.2055 131.761 23.8893 131.002 23.4257L126.521 20.6891C126.201 20.4936 125.799 20.4936 125.479 20.6891L120.998 23.4257C120.239 23.8893 119.298 23.2055 119.504 22.3402L120.723 17.2335C120.81 16.8688 120.685 16.486 120.4 16.242L116.413 12.8266C115.738 12.248 116.097 11.1414 116.984 11.0704L122.217 10.6508C122.591 10.6209 122.917 10.3843 123.061 10.0381L125.077 5.19063Z" fill="#F7931A"/>
<path d="M158.032 20.9707V18.6987H152.432V16.5387L156.512 9.7707H159.888V17.0347H161.76V18.6987H159.888V20.9707H158.032ZM154.224 17.0347H158.032V10.9547H157.76L154.224 16.7947V17.0347ZM164.429 21.1947C164.024 21.1947 163.682 21.0614 163.405 20.7947C163.138 20.528 163.005 20.1867 163.005 19.7707C163.005 19.3654 163.138 19.0294 163.405 18.7627C163.682 18.496 164.024 18.3627 164.429 18.3627C164.834 18.3627 165.17 18.496 165.437 18.7627C165.704 19.0294 165.837 19.3707 165.837 19.7867C165.837 20.2027 165.704 20.544 165.437 20.8107C165.17 21.0667 164.834 21.1947 164.429 21.1947ZM171.488 21.1947C170.656 21.1947 169.936 21.056 169.328 20.7787C168.73 20.4907 168.266 20.0907 167.936 19.5787C167.605 19.056 167.44 18.4427 167.44 17.7387H169.328C169.328 18.2294 169.498 18.6507 169.84 19.0027C170.192 19.3547 170.741 19.5307 171.488 19.5307C172.245 19.5307 172.826 19.3334 173.232 18.9387C173.648 18.5334 173.856 17.9787 173.856 17.2747V16.0267H173.584C173.392 16.272 173.104 16.5014 172.72 16.7147C172.336 16.9174 171.77 17.0187 171.024 17.0187C170.373 17.0187 169.77 16.88 169.216 16.6027C168.661 16.3254 168.213 15.92 167.872 15.3867C167.541 14.8534 167.376 14.2134 167.376 13.4667V13.2747C167.376 12.5174 167.552 11.8614 167.904 11.3067C168.256 10.752 168.746 10.32 169.376 10.0107C170.005 9.70137 170.736 9.5467 171.568 9.5467C172.4 9.5467 173.125 9.7067 173.744 10.0267C174.373 10.336 174.858 10.7734 175.2 11.3387C175.541 11.904 175.712 12.56 175.712 13.3067V17.1627C175.712 18.048 175.53 18.7894 175.168 19.3867C174.816 19.984 174.32 20.4374 173.68 20.7467C173.05 21.0454 172.32 21.1947 171.488 21.1947ZM171.536 15.5307C172.016 15.5307 172.426 15.4454 172.768 15.2747C173.109 15.0934 173.376 14.848 173.568 14.5387C173.76 14.2187 173.856 13.8454 173.856 13.4187V13.2907C173.856 12.6507 173.648 12.144 173.232 11.7707C172.816 11.3974 172.25 11.2107 171.536 11.2107C170.832 11.2107 170.272 11.3974 169.856 11.7707C169.44 12.144 169.232 12.6507 169.232 13.2907V13.4187C169.232 13.8454 169.328 14.2187 169.52 14.5387C169.712 14.848 169.978 15.0934 170.32 15.2747C170.672 15.4454 171.077 15.5307 171.536 15.5307Z" fill="#1A1E42"/>
</svg>
