<svg width="120" height="23" viewBox="0 0 120 23" fill="none" xmlns="http://www.w3.org/2000/svg">
<path d="M22.5 0H0V22.5H22.5V0Z" fill="#00B67A"/>
<path d="M46.875 0H24.375V22.5H46.875V0Z" fill="#00B67A"/>
<path d="M71.25 0H48.75V22.5H71.25V0Z" fill="#00B67A"/>
<path d="M95.625 0H73.125V22.5H95.625V0Z" fill="#00B67A"/>
<path d="M120 0H97.5V22.5H120V0Z" fill="#00B67A"/>
<path d="M11.25 15.1641L14.6719 14.2969L16.1016 18.7031L11.25 15.1641ZM19.125 9.46875H13.1016L11.25 3.79688L9.39844 9.46875H3.375L8.25 12.9844L6.39844 18.6562L11.2734 15.1406L14.2734 12.9844L19.125 9.46875Z" fill="white"/>
<path d="M35.625 15.1641L39.0469 14.2969L40.4766 18.7031L35.625 15.1641ZM43.5 9.46875H37.4766L35.625 3.79688L33.7734 9.46875H27.75L32.625 12.9844L30.7734 18.6562L35.6484 15.1406L38.6484 12.9844L43.5 9.46875Z" fill="white"/>
<path d="M60 15.1641L63.4219 14.2969L64.8516 18.7031L60 15.1641ZM67.875 9.46875H61.8516L60 3.79688L58.1484 9.46875H52.125L57 12.9844L55.1484 18.6562L60.0234 15.1406L63.0234 12.9844L67.875 9.46875Z" fill="white"/>
<path d="M84.375 15.1641L87.7969 14.2969L89.2266 18.7031L84.375 15.1641ZM92.25 9.46875H86.2266L84.375 3.79688L82.5234 9.46875H76.5L81.375 12.9844L79.5234 18.6562L84.3984 15.1406L87.3984 12.9844L92.25 9.46875Z" fill="white"/>
<path d="M108.75 15.1641L112.172 14.2969L113.602 18.7031L108.75 15.1641ZM116.625 9.46875H110.602L108.75 3.79688L106.898 9.46875H100.875L105.75 12.9844L103.898 18.6562L108.773 15.1406L111.773 12.9844L116.625 9.46875Z" fill="white"/>
</svg>
